<svg xmlns="http://www.w3.org/2000/svg" height="40" viewBox="0 -960 960 960" width="40"><path d="M546.666-410.666q36.667 0 62.347-24.871 25.679-24.871 25.679-59.796h178.642v-318.001H279.999v318.001h178.667q0 34.925 25.85 59.796 25.85 24.871 62.15 24.871ZM279.999-213.333q-27 0-46.833-19.833t-19.833-46.833v-533.335q0-27 19.833-46.833T279.999-880h533.335q27 0 46.833 19.833T880-813.334v533.335q0 27-19.833 46.833t-46.833 19.833H279.999ZM146.666-80q-27 0-46.833-19.833T80-146.666v-600.001h66.666v600.001h600.001V-80H146.666Z"/></svg>