<svg width="24" height="24" viewBox="0 0 24 24" fill="none" xmlns="http://www.w3.org/2000/svg"><path fill="currentColor" d="M11 20.5C8.76667 20.5 6.875 19.725 5.325 18.175C3.775 16.625 3 14.7333 3 12.5C3 10.2667 3.775 8.375 5.325 6.825C6.875 5.275 8.76667 4.5 11 4.5C11.0833 4.5 11.1667 4.50417 11.25 4.5125C11.3333 4.52083 11.4167 4.525 11.5 4.525C11.0167 5.05833 10.6458 5.66667 10.3875 6.35C10.1292 7.03333 10 7.75 10 8.5C10 10.1667 10.5833 11.5833 11.75 12.75C12.9167 13.9167 14.3333 14.5 16 14.5C16.5167 14.5 17.0208 14.4375 17.5125 14.3125C18.0042 14.1875 18.4667 14 18.9 13.75C18.6 15.7167 17.7 17.3333 16.2 18.6C14.7 19.8667 12.9667 20.5 11 20.5Z"/><path fill="currentColor" d="M13 11.5V10.5H14.375L14.175 10.325C13.7417 9.94167 13.4375 9.50417 13.2625 9.0125C13.0875 8.52083 13 8.025 13 7.525C13 6.6 13.2771 5.77708 13.8313 5.05625C14.3854 4.33542 15.1083 3.85833 16 3.625V4.675C15.4 4.89167 14.9167 5.26042 14.55 5.78125C14.1833 6.30208 14 6.88333 14 7.525C14 7.9 14.0708 8.26458 14.2125 8.61875C14.3542 8.97292 14.575 9.3 14.875 9.6L15 9.725V8.5H16V11.5H13ZM18 11.375V10.325C18.6 10.1083 19.0833 9.73958 19.45 9.21875C19.8167 8.69792 20 8.11667 20 7.475C20 7.1 19.9292 6.73542 19.7875 6.38125C19.6458 6.02708 19.425 5.7 19.125 5.4L19 5.275V6.5H18V3.5H21V4.5H19.625L19.825 4.675C20.2333 5.08333 20.5312 5.52708 20.7188 6.00625C20.9062 6.48542 21 6.975 21 7.475C21 8.4 20.7229 9.22292 20.1688 9.94375C19.6146 10.6646 18.8917 11.1417 18 11.375Z"/></svg>