<svg height="29" version="1.1" viewBox="0 0 99 29" xmlns="http://www.w3.org/2000/svg" fill="#666">
    <path
        d="M80.4942222,8.19337259 C77.8679359,8.19337259 75.0373164,8.68203271 73.0874946,9.48061075 L73.8434916,14.8134546 C75.3157913,14.1289577 77.6615169,13.5875135 79.4521722,13.5875135 C81.4815755,13.5875135 82.5681059,14.2322441 82.5681059,15.7533428 C82.5681059,15.867424 82.5667982,16.282302 82.5272412,16.6625824 C74.4494138,16.6625824 71.3711771,18.1852896 71.3711771,22.7105586 C71.3711771,26.7034521 73.8447928,28.993516 78.0627723,28.993516 C79.8534211,28.993516 81.5280861,29.0094244 83.1197794,27.7164848 L83.3138867,27.7164848 L83.620372,28.993516 L89.0860261,28.993516 C88.2401791,27.4875052 88.1600777,24.2157201 88.1870026,22.3223439 C88.2211394,19.9257729 88.4117585,17.1280249 88.4117585,15.1505884 C88.4117585,10.0168766 84.7519974,8.19337259 80.4942222,8.19337259 Z M82.4352956,20.759269 L82.4659278,21.2700778 C82.5246618,22.2018682 82.2438526,23.0024862 81.607769,23.660663 C80.9711165,24.3103006 80.1547803,24.662963 79.166103,24.7129291 C78.3731904,24.7530124 77.7366556,24.6165897 77.2658942,24.3144982 C76.804365,24.0033772 76.5669672,23.5574812 76.5303296,22.9761792 C76.4904423,22.3435903 76.7279807,21.8576043 77.2556781,21.5050498 C77.7931666,21.1520082 78.6111962,20.9474951 79.7075603,20.8920793 L82.4352956,20.759269 Z"
        id="path3904-5-7-5-2-2"></path>
    <path
        d="M57.2886378,13.8123119 L57.2886378,8.19966575 L52.5065423,8.19966575 L52.5065423,1.36172257 L46.0165507,3.85184108 L46.0165507,8.19966575 L42.9850369,8.19966575 L42.9850369,13.8123119 L46.0165507,13.8123119 L46.0165507,20.1759499 C46.0165507,24.0494596 47.340178,28.792544 54.9402872,28.990169 L56.9043592,23.4170537 C53.7447625,23.0613249 52.5065423,21.8755489 52.5065423,18.5949206 L52.5065423,13.8123119 L57.2886378,13.8123119"
        id="path3900-5-0-0-4-7"></path>
    <path
        d="M0.41983517,8.2112419 L5.03245986,28.988688 L10.4283596,28.988688 C9.05652492,21.7624615 7.90159032,15.6214642 6.49954849,8.2112419 L0.41983517,8.2112419 Z M11.8830155,8.2112419 L10.7143177,12.4489934 L12.8030533,23.5294644 L14.9166542,15.9015117 L18.5595072,28.988688 L24.8257139,28.988688 L29.4010406,8.2112419 L23.3461926,8.2112419 L21.1579956,19.8152028 L17.9502929,8.2112419 L11.8830155,8.2112419 Z"
        id="path4120-2-8-4-8-3"></path>
    <path
        d="M39.1562071,3.24498388 C39.1562071,5.03713979 37.7033786,6.48996827 35.9112227,6.48996827 C34.1190668,6.48996827 32.6662383,5.03713979 32.6662383,3.24498388 C32.6662383,1.45282797 34.1190668,-5.15876853e-07 35.9112227,-5.15876853e-07 C37.7033786,-5.15876853e-07 39.1562071,1.45282797 39.1562071,3.24498388 Z"
        id="path4925-1-4-7"></path>
    <path
        d="M67.3361308,25.755015 C67.3361308,27.5471709 65.8833023,28.9999994 64.0911464,28.9999994 C62.2989905,28.9999994 60.846162,27.5471709 60.846162,25.755015 C60.846162,23.9628591 62.2989905,22.5100306 64.0911464,22.5100306 C65.8833023,22.5100306 67.3361308,23.9628591 67.3361308,25.755015 Z"
        id="path4925-4-9-9-9"></path>
    <path
        d="M98.5172271,3.24498388 C98.5172271,5.03713652 97.0643986,6.48996827 95.2722427,6.48996827 C93.4800868,6.48996827 92.0272583,5.03713652 92.0272583,3.24498388 C92.0272583,1.45282797 93.4800868,-5.15876853e-07 95.2722427,-5.15876853e-07 C97.0643986,-5.15876853e-07 98.5172271,1.45282797 98.5172271,3.24498388 Z"
        id="path4925-8-5-4-0"></path>
    <polygon id="path3900-5-0-24-92-4-2"
        points="39.1562169 8.22384131 32.6662285 8.22384131 32.6662285 28.9919899 39.1562169 28.9919899">
    </polygon>
    <polygon id="path3900-5-0-24-9-9-5-3"
        points="98.5172401 8.32219775 92.0272452 8.32219775 92.0272452 28.9919899 98.5172401 28.9919899">
    </polygon>
</svg>