<svg xmlns="http://www.w3.org/2000/svg" height="40" viewBox="0 -960 960 960" width="40"><path d="M432.667-498.667 711-776.333q10-10 23.333-10 13.333 0 23.333 10 10 10 10 23.333 0 13.333-10 23.333l-278 278.333-46.999-47.333ZM535-396.333 784.333-646q10.045-10 23.856-10Q822-656 832-646.105t10 23.5Q842-609 832-599L582-349l-47-47.333ZM200.333-203q-91-91-91.333-218.333-.334-127.333 90.666-218.333L321-761l47.666 47.667q10.333 10.333 17 23.5t9 25.167l158-159.001q10.045-9.999 23.856-9.999 13.811 0 23.811 10.035t10 23.833q0 13.798-10 23.798L407.332-583l-71.666 71.333L359.333-488q43.333 43.333 41.666 103.667-1.666 60.333-45.333 104l-4.667 4.666L304-323l4.666-4.667Q333-352 334.166-384.833q1.167-32.834-22.5-56.5l-47-46.667q-10-10.044-10-23.855 0-13.812 10-23.811L321-591q15.333-15.333 15.333-37.833 0-22.501-15.333-37.834L246.333-592q-71.334 71.333-71 170.834.333 99.5 71.666 170.833 72.001 72 172.334 73 100.334 1 171.667-70.333l240.333-240.667q10.045-10 23.856-10 13.811 0 23.811 9.895t10 23.5q0 13.605-10 23.605L638.333-201q-91 91-219 90t-219-92ZM418-420.666Zm268 381 .667-67q69.333 0 118-48.667t48.667-118l66.999-.667q0 97.234-68.549 165.784-68.55 68.55-165.784 68.55ZM39.667-686q0-97.234 68.549-165.784 68.55-68.549 165.784-68.549l-.667 66.999q-69.333 0-118 48.667t-48.667 118l-67 .667Z"/></svg>