<svg width="94" height="94" viewBox="0 0 94 94" fill="none" xmlns="http://www.w3.org/2000/svg">
<path opacity="0.8" d="M41.1292 2.29326C44.7758 0.247683 49.2242 0.247684 52.8708 2.29326L55.5152 3.7766C57.2644 4.75787 59.2318 5.28502 61.2374 5.30986L64.2691 5.34741C68.4499 5.3992 72.3024 7.62342 74.4377 11.2182L75.986 13.825C77.0103 15.5495 78.4505 16.9897 80.175 18.014L82.7818 19.5623C86.3766 21.6976 88.6008 25.5501 88.6526 29.7309L88.6901 32.7626C88.715 34.7682 89.2421 36.7356 90.2234 38.4848L91.7067 41.1292C93.7523 44.7758 93.7523 49.2242 91.7067 52.8708L90.2234 55.5152C89.2421 57.2644 88.715 59.2318 88.6901 61.2374L88.6526 64.2691C88.6008 68.4499 86.3766 72.3024 82.7818 74.4377L80.175 75.986C78.4505 77.0103 77.0103 78.4505 75.986 80.175L74.4377 82.7818C72.3024 86.3766 68.4499 88.6008 64.2691 88.6526L61.2374 88.6901C59.2318 88.715 57.2644 89.2421 55.5152 90.2234L52.8708 91.7067C49.2242 93.7523 44.7758 93.7523 41.1292 91.7067L38.4848 90.2234C36.7356 89.2421 34.7682 88.715 32.7626 88.6901L29.7309 88.6526C25.5501 88.6008 21.6976 86.3766 19.5623 82.7818L18.014 80.175C16.9897 78.4505 15.5495 77.0103 13.825 75.986L11.2182 74.4377C7.62342 72.3024 5.3992 68.4499 5.34741 64.2691L5.30986 61.2374C5.28502 59.2318 4.75787 57.2644 3.7766 55.5152L2.29326 52.8708C0.247683 49.2242 0.247684 44.7758 2.29326 41.1292L3.7766 38.4848C4.75787 36.7356 5.28502 34.7682 5.30986 32.7626L5.34741 29.7309C5.3992 25.5501 7.62342 21.6976 11.2182 19.5623L13.825 18.014C15.5495 16.9897 16.9897 15.5495 18.014 13.825L19.5623 11.2182C21.6976 7.62342 25.5501 5.3992 29.7309 5.34741L32.7626 5.30986C34.7682 5.28502 36.7356 4.75787 38.4848 3.7766L41.1292 2.29326Z" fill="url(#paint0_linear_1171_1225)"/>
<defs>
<linearGradient id="paint0_linear_1171_1225" x1="9.50005" y1="-66.4999" x2="-44.2503" y2="-29.1884" gradientUnits="userSpaceOnUse">
<stop stop-color="#C087EB"/>
<stop offset="1" stop-color="#61A2F8"/>
</linearGradient>
</defs>
</svg>
