<?xml version="1.0" standalone="no"?>
<!DOCTYPE svg PUBLIC "-//W3C//DTD SVG 20010904//EN"
 "http://www.w3.org/TR/2001/REC-SVG-20010904/DTD/svg10.dtd">
<svg version="1.0" xmlns="http://www.w3.org/2000/svg"
 width="260.000000pt" height="260.000000pt" viewBox="0 0 260.000000 260.000000"
 preserveAspectRatio="xMidYMid meet">
<metadata>
Created by potrace 1.14, written by Peter Selinger 2001-2017
</metadata>
<g transform="translate(0.000000,260.000000) scale(0.100000,-0.100000)"
fill="#000000" stroke="none">
<path d="M1132 2590 c-549 -78 -984 -480 -1103 -1020 -31 -138 -33 -389 -5
-520 55 -253 163 -462 333 -641 188 -197 409 -322 673 -380 138 -31 389 -33
520 -5 253 55 462 163 641 333 197 188 322 409 380 673 31 138 33 389 5 520
-55 253 -163 462 -333 641 -184 193 -399 317 -653 375 -118 28 -348 40 -458
24z m477 -719 c86 -27 124 -59 163 -138 l33 -68 0 -200 c0 -188 -1 -203 -23
-250 -32 -69 -86 -121 -152 -147 -46 -17 -84 -22 -230 -27 l-175 -6 -3 -157
c-2 -147 -4 -158 -23 -168 -13 -7 -76 -10 -175 -8 -124 2 -157 6 -164 18 -6 9
-10 243 -10 581 0 458 3 569 13 578 15 12 303 20 538 15 109 -3 162 -9 208
-23z"/>
<path d="M1220 1460 l0 -130 90 0 c83 0 93 2 115 25 22 21 25 33 25 99 0 84
-13 122 -44 130 -11 3 -58 6 -103 6 l-83 0 0 -130z"/>
</g>
</svg>
