<svg width="312" height="312" viewBox="0 0 312 312" fill="none" xmlns="http://www.w3.org/2000/svg">
<g clip-path="url(#clip0_1335_237)">
<mask id="mask0_1335_237" style="mask-type:alpha" maskUnits="userSpaceOnUse" x="0" y="0" width="312" height="312">
<circle cx="156" cy="156" r="156" fill="#D9D9D9"/>
</mask>
<g mask="url(#mask0_1335_237)">
<path d="M0 0H312V312H0V0Z" fill="url(#paint0_linear_1335_237)"/>
<g filter="url(#filter0_d_1335_237)">
<path d="M134.69 244.159C134.007 236.079 129.5 209 128 207C173.5 235 198.19 231.659 198.19 231.659C198.19 231.659 202.702 227.005 210.19 229.159C240.19 234.159 253.806 250.775 254.19 251.159C254.59 251.559 261.427 293.776 264.594 313.943L56.594 312.943C82.594 293.776 135.373 252.239 134.69 244.159Z" fill="url(#paint1_linear_1335_237)"/>
<path d="M45.094 312.943C49.494 312.143 106.69 249.659 124.69 233.659L181.594 313.443C197.339 313.398 212.981 313.427 227.594 313.452L197.69 227.712C201.66 227.811 205.369 228.106 208.69 228.659C238.69 233.659 252.931 245.821 254.69 250.659C256.69 256.159 261.261 292.943 264.594 313.443C253.614 313.492 241.04 313.474 227.594 313.452C212.981 313.427 197.339 313.398 181.594 313.443C113.526 313.639 42.0472 313.497 45.094 312.943Z" fill="url(#paint2_radial_1335_237)"/>
<path d="M127.69 231.659L134.69 246.159C134.69 241.159 133.5 228.276 131.5 221.943L130 223.943L127.69 231.659Z" fill="#2C2E36"/>
<g filter="url(#filter1_d_1335_237)">
<path d="M232.094 313.443H206.594L205.69 270.659L195.69 249.659L198.69 233.159H201.69L251.18 282.15C249.558 280.56 241.516 280.827 237.69 281.159L242.19 290.659C243.79 291.859 242.857 294.826 242.19 296.159L232.094 313.443Z" fill="url(#paint3_linear_1335_237)"/>
</g>
<g filter="url(#filter2_d_1335_237)">
<path d="M131.5 221.943C131.174 222.424 130.835 222.935 130.486 223.474C127.468 229.473 131.594 239.773 134.19 244.659L156.69 274.659L194.094 313.443H179.594L176.69 308.159L172.69 312.659H134.19C126.69 305.159 122.69 282.159 117.19 266.659C113.005 254.866 123.694 233.952 130.486 223.474C130.762 222.925 131.098 222.413 131.5 221.943Z" fill="url(#paint4_linear_1335_237)"/>
</g>
<path d="M45.094 312.943C49.494 312.143 106.69 249.659 124.69 233.659L181.594 313.443C197.339 313.398 212.981 313.427 227.594 313.452L197.69 227.712C201.66 227.811 205.369 228.106 208.69 228.659C238.69 233.659 252.931 245.821 254.69 250.659C256.69 256.159 261.261 292.943 264.594 313.443C253.614 313.492 241.04 313.474 227.594 313.452C212.981 313.427 197.339 313.398 181.594 313.443C113.526 313.639 42.0472 313.497 45.094 312.943Z" fill="url(#paint5_radial_1335_237)"/>
<path d="M127.69 231.659L134.69 246.159C134.69 241.159 133.5 228.276 131.5 221.943L130 223.943L127.69 231.659Z" fill="#E9EAED"/>
<g filter="url(#filter3_d_1335_237)">
<path d="M232.094 313.443H206.594L205.69 270.659L195.69 249.659L198.69 233.159H201.69L251.18 282.15C249.558 280.56 241.516 280.827 237.69 281.159L242.19 290.659C243.79 291.859 242.857 294.826 242.19 296.159L232.094 313.443Z" fill="url(#paint6_linear_1335_237)"/>
</g>
<g filter="url(#filter4_d_1335_237)">
<path d="M131.5 221.943C131.174 222.424 130.835 222.935 130.486 223.474C127.468 229.473 131.594 239.773 134.19 244.659L156.69 274.659L194.094 313.443H179.594L176.69 308.159L172.69 312.659H134.19C126.69 305.159 122.69 282.159 117.19 266.659C113.005 254.866 123.694 233.952 130.486 223.474C130.762 222.925 131.098 222.413 131.5 221.943Z" fill="url(#paint7_linear_1335_237)"/>
</g>
</g>
<g filter="url(#filter5_d_1335_237)">
<path d="M87.7875 168.382C89.8648 165.335 98.7875 165.382 101.287 164.882C108.19 166.159 117.287 186.382 122.787 198.882C119.287 210.382 111.787 205.882 109.287 202.382C106.887 202.382 100.621 195.549 98.2875 192.382C93.7875 191.882 84.1898 173.659 87.7875 168.382Z" fill="#DAA881"/>
<path d="M107.547 177.943C107.522 178.234 107.179 178.358 107.069 178.627C106.97 178.868 107.05 179.21 107.05 179.462C107.05 179.979 106.747 180.817 107.629 180.919C108.065 180.969 108.304 180.974 108.668 181.202C108.993 181.406 109.005 181.65 109.275 181.865C109.814 182.294 109.367 182.917 109.367 183.474C109.367 184.215 109.429 184.453 110.111 184.965C110.61 185.34 111.16 186.008 111.187 186.547C111.216 187.134 111.025 187.664 111.858 187.872C112.298 187.982 113.713 187.977 114 187.762" stroke="#B88F6D" stroke-width="1.5" stroke-linecap="round"/>
<path d="M101.883 174.423C101.883 172.074 99.6287 172.067 97.962 171.591C97.0367 171.327 96.1016 170.612 95.0993 171.28C94.3969 171.748 93.7818 172.462 93.0767 172.96C91.8416 173.832 92.0475 178.237 92.6411 179.572C93.4318 181.351 94.6305 182.9 95.3015 184.644C95.659 185.574 96.6855 185.748 97.2463 186.527C97.9248 187.469 98.4507 188.666 99.3 189.483C100.831 190.955 102.764 191.862 104.139 193.466C106.623 196.365 111.335 199.262 115.325 197.666" stroke="#B88F6D" stroke-width="1.5" stroke-linecap="round"/>
<path d="M71.4727 129.717C72.3767 135 82.8061 151.884 88.9727 159.717C92.9726 163.716 102.473 164.216 105.473 168.216C107.452 170.855 120.473 195.883 129.973 210.216C150.639 227.216 202.603 243.216 211.973 225.216C227.173 196.016 225.973 167.05 223.473 156.216L207.473 115.216C205.873 87.6163 197.139 72.7168 192.973 68.717C160.973 39.7163 140.473 41.7163 113.473 56.717C67.532 82.2407 70.3636 123.235 71.4727 129.717Z" fill="#DAA881"/>
<path d="M165.848 184.36C173.419 188.238 189.798 191.596 194.743 174" stroke="#272426" stroke-width="4" stroke-linecap="round"/>
<ellipse cx="141.495" cy="147.829" rx="4" ry="8" transform="rotate(-20 141.495 147.829)" fill="#1F1F1F"/>
<ellipse cx="188.495" cy="132.886" rx="4" ry="8" transform="rotate(-20 188.495 132.886)" fill="#1F1F1F"/>
</g>
<g filter="url(#filter6_f_1335_237)">
<path d="M194.962 80.9544C197.076 93.1997 173.24 107.537 141.723 112.978C110.205 118.419 82.9415 112.903 80.8276 100.658C78.7137 88.4124 102.55 74.0749 134.067 68.634C165.585 63.1931 192.849 68.7091 194.962 80.9544Z" fill="#9A561A" fill-opacity="0.3"/>
<path d="M194.962 80.9544C197.076 93.1997 173.24 107.537 141.723 112.978C110.205 118.419 82.9415 112.903 80.8276 100.658C78.7137 88.4124 102.55 74.0749 134.067 68.634C165.585 63.1931 192.849 68.7091 194.962 80.9544Z" fill="#9A561A" fill-opacity="0.3"/>
</g>
<g filter="url(#filter7_f_1335_237)">
<ellipse cx="110.683" cy="194.932" rx="6.09613" ry="13.5878" transform="rotate(-30.8329 110.683 194.932)" fill="#D9D9D9" fill-opacity="0.33"/>
</g>
<g filter="url(#filter8_f_1335_237)">
<ellipse cx="208.504" cy="121.301" rx="2.8277" ry="50.9457" transform="rotate(-18.71 208.504 121.301)" fill="#D9D9D9" fill-opacity="0.33"/>
</g>
<g filter="url(#filter9_f_1335_237)">
<path d="M125.02 188.456C133.07 200.239 138.487 210.55 137.117 211.485C135.748 212.421 128.111 203.627 120.061 191.844C112.01 180.061 106.594 169.751 107.963 168.815C109.333 167.879 116.969 176.673 125.02 188.456Z" fill="#321B03" fill-opacity="0.25"/>
</g>
<g filter="url(#filter10_f_1335_237)">
<path d="M185.304 80.8744C194.712 94.6436 198.92 108.141 194.703 111.022C190.486 113.903 179.441 105.077 170.034 91.3076C160.626 77.5384 156.418 64.0407 160.635 61.1596C164.852 58.2785 175.897 67.1051 185.304 80.8744Z" fill="#321903" fill-opacity="0.15"/>
</g>
<g filter="url(#filter11_f_1335_237)">
<path d="M197.284 86.5738C201.67 92.9923 203.357 99.4718 201.053 101.046C198.749 102.62 193.326 98.6931 188.94 92.2746C184.555 85.856 182.868 79.3765 185.172 77.8023C187.476 76.2281 192.899 80.1552 197.284 86.5738Z" fill="#320C03" fill-opacity="0.25"/>
</g>
<g filter="url(#filter12_f_1335_237)">
<path d="M153.499 217.052C164.738 220.869 173.426 225.206 172.905 226.74C172.384 228.273 162.851 226.422 151.613 222.606C140.375 218.789 131.687 214.451 132.208 212.917C132.728 211.384 142.261 213.235 153.499 217.052Z" fill="#69470C" fill-opacity="0.33"/>
</g>
<g filter="url(#filter13_f_1335_237)">
<path d="M184.578 183.547C184.676 183.881 183.771 184.441 182.556 184.799C181.341 185.156 180.276 185.175 180.178 184.841C180.08 184.507 180.985 183.947 182.2 183.59C183.415 183.233 184.48 183.214 184.578 183.547Z" fill="#E9E8E7" fill-opacity="0.5"/>
</g>
<g filter="url(#filter14_f_1335_237)">
<path d="M190.578 183.547C190.676 183.881 189.771 184.441 188.556 184.799C187.341 185.156 186.276 185.175 186.178 184.841C186.08 184.507 186.985 183.947 188.2 183.59C189.415 183.233 190.48 183.214 190.578 183.547Z" fill="#E9E8E7" fill-opacity="0.5"/>
</g>
<g filter="url(#filter15_f_1335_237)">
<path d="M184.828 101.555C171.52 93.8285 164.876 87.5574 144.109 83.6081C143.685 83.5273 143.358 83.9864 143.584 84.3548L154.757 102.598C155.057 103.088 154.43 103.614 154 103.234L135.263 86.6754C135.105 86.536 134.877 86.5103 134.692 86.6113L130.781 88.7475C130.609 88.8415 130.507 89.0235 130.52 89.2191C130.903 95.0346 130.456 104.93 132.607 109.175C132.827 109.609 132.47 110.143 132.028 109.94C128.498 108.32 121.891 103.256 120.333 99.1914C120.152 98.7187 119.336 98.5412 119.097 98.9876C116.532 103.778 112.891 113.479 112 117.443C111.353 120.322 107.211 115.094 103.934 109.671C104.008 111.299 103.771 115.517 102.5 125.943C100.239 144.48 106.896 165.061 108.631 171.051C108.763 171.507 108.25 171.828 107.866 171.549C100.849 166.447 90.4555 166.141 88.1213 160.683C88.1032 160.641 88.0809 160.602 88.0525 160.566C81.8829 152.714 71.9952 136.888 70.5943 130.619C69.16 124.201 66.0594 81.4668 112 55.9431C139 40.9424 162 38.4012 194 67.4019C198.043 71.2825 208.361 91.6753 206.688 115.262C206.651 115.792 205.953 115.882 205.784 115.378C202.371 105.195 197.37 86.3032 190.558 83.5869C190.27 83.4724 189.973 83.6826 189.945 83.9906L189.643 87.314C189.598 87.8016 188.952 87.9415 188.71 87.516L187.223 84.9018L185.578 101.176C185.541 101.536 185.141 101.737 184.828 101.555Z" fill="url(#paint8_linear_1335_237)"/>
</g>
<g filter="url(#filter16_f_1335_237)">
<path d="M138.287 230.171C140.185 241.887 140.428 251.595 138.829 251.854C137.23 252.113 134.395 242.825 132.497 231.11C130.598 219.394 130.355 209.686 131.954 209.427C133.553 209.168 136.388 218.455 138.287 230.171Z" fill="#69470C" fill-opacity="0.33"/>
</g>
</g>
</g>
<defs>
<filter id="filter0_d_1335_237" x="29.3999" y="195.4" width="250.794" height="138.143" filterUnits="userSpaceOnUse" color-interpolation-filters="sRGB">
<feFlood flood-opacity="0" result="BackgroundImageFix"/>
<feColorMatrix in="SourceAlpha" type="matrix" values="0 0 0 0 0 0 0 0 0 0 0 0 0 0 0 0 0 0 127 0" result="hardAlpha"/>
<feOffset dy="4"/>
<feGaussianBlur stdDeviation="7.8"/>
<feComposite in2="hardAlpha" operator="out"/>
<feColorMatrix type="matrix" values="0 0 0 0 0 0 0 0 0 0 0 0 0 0 0 0 0 0 0.25 0"/>
<feBlend mode="normal" in2="BackgroundImageFix" result="effect1_dropShadow_1335_237"/>
<feBlend mode="normal" in="SourceGraphic" in2="effect1_dropShadow_1335_237" result="shape"/>
</filter>
<filter id="filter1_d_1335_237" x="183.69" y="225.159" width="79.4905" height="104.284" filterUnits="userSpaceOnUse" color-interpolation-filters="sRGB">
<feFlood flood-opacity="0" result="BackgroundImageFix"/>
<feColorMatrix in="SourceAlpha" type="matrix" values="0 0 0 0 0 0 0 0 0 0 0 0 0 0 0 0 0 0 127 0" result="hardAlpha"/>
<feOffset dy="4"/>
<feGaussianBlur stdDeviation="6"/>
<feComposite in2="hardAlpha" operator="out"/>
<feColorMatrix type="matrix" values="0 0 0 0 0 0 0 0 0 0 0 0 0 0 0 0 0 0 0.25 0"/>
<feBlend mode="normal" in2="BackgroundImageFix" result="effect1_dropShadow_1335_237"/>
<feBlend mode="normal" in="SourceGraphic" in2="effect1_dropShadow_1335_237" result="shape"/>
</filter>
<filter id="filter2_d_1335_237" x="104.246" y="213.943" width="101.848" height="115.5" filterUnits="userSpaceOnUse" color-interpolation-filters="sRGB">
<feFlood flood-opacity="0" result="BackgroundImageFix"/>
<feColorMatrix in="SourceAlpha" type="matrix" values="0 0 0 0 0 0 0 0 0 0 0 0 0 0 0 0 0 0 127 0" result="hardAlpha"/>
<feOffset dy="4"/>
<feGaussianBlur stdDeviation="6"/>
<feComposite in2="hardAlpha" operator="out"/>
<feColorMatrix type="matrix" values="0 0 0 0 0 0 0 0 0 0 0 0 0 0 0 0 0 0 0.25 0"/>
<feBlend mode="normal" in2="BackgroundImageFix" result="effect1_dropShadow_1335_237"/>
<feBlend mode="normal" in="SourceGraphic" in2="effect1_dropShadow_1335_237" result="shape"/>
</filter>
<filter id="filter3_d_1335_237" x="183.69" y="225.159" width="79.4905" height="104.284" filterUnits="userSpaceOnUse" color-interpolation-filters="sRGB">
<feFlood flood-opacity="0" result="BackgroundImageFix"/>
<feColorMatrix in="SourceAlpha" type="matrix" values="0 0 0 0 0 0 0 0 0 0 0 0 0 0 0 0 0 0 127 0" result="hardAlpha"/>
<feOffset dy="4"/>
<feGaussianBlur stdDeviation="6"/>
<feComposite in2="hardAlpha" operator="out"/>
<feColorMatrix type="matrix" values="0 0 0 0 0 0 0 0 0 0 0 0 0 0 0 0 0 0 0.25 0"/>
<feBlend mode="normal" in2="BackgroundImageFix" result="effect1_dropShadow_1335_237"/>
<feBlend mode="normal" in="SourceGraphic" in2="effect1_dropShadow_1335_237" result="shape"/>
</filter>
<filter id="filter4_d_1335_237" x="104.246" y="213.943" width="101.848" height="115.5" filterUnits="userSpaceOnUse" color-interpolation-filters="sRGB">
<feFlood flood-opacity="0" result="BackgroundImageFix"/>
<feColorMatrix in="SourceAlpha" type="matrix" values="0 0 0 0 0 0 0 0 0 0 0 0 0 0 0 0 0 0 127 0" result="hardAlpha"/>
<feOffset dy="4"/>
<feGaussianBlur stdDeviation="6"/>
<feComposite in2="hardAlpha" operator="out"/>
<feColorMatrix type="matrix" values="0 0 0 0 0 0 0 0 0 0 0 0 0 0 0 0 0 0 0.25 0"/>
<feBlend mode="normal" in2="BackgroundImageFix" result="effect1_dropShadow_1335_237"/>
<feBlend mode="normal" in="SourceGraphic" in2="effect1_dropShadow_1335_237" result="shape"/>
</filter>
<filter id="filter5_d_1335_237" x="51" y="30" width="193.98" height="227.137" filterUnits="userSpaceOnUse" color-interpolation-filters="sRGB">
<feFlood flood-opacity="0" result="BackgroundImageFix"/>
<feColorMatrix in="SourceAlpha" type="matrix" values="0 0 0 0 0 0 0 0 0 0 0 0 0 0 0 0 0 0 127 0" result="hardAlpha"/>
<feOffset dy="4"/>
<feGaussianBlur stdDeviation="10"/>
<feComposite in2="hardAlpha" operator="out"/>
<feColorMatrix type="matrix" values="0 0 0 0 0 0 0 0 0 0 0 0 0 0 0 0 0 0 0.125 0"/>
<feBlend mode="normal" in2="BackgroundImageFix" result="effect1_dropShadow_1335_237"/>
<feBlend mode="normal" in="SourceGraphic" in2="effect1_dropShadow_1335_237" result="shape"/>
</filter>
<filter id="filter6_f_1335_237" x="48.6971" y="34.5377" width="178.396" height="112.536" filterUnits="userSpaceOnUse" color-interpolation-filters="sRGB">
<feFlood flood-opacity="0" result="BackgroundImageFix"/>
<feBlend mode="normal" in="SourceGraphic" in2="BackgroundImageFix" result="shape"/>
<feGaussianBlur stdDeviation="16" result="effect1_foregroundBlur_1335_237"/>
</filter>
<filter id="filter7_f_1335_237" x="85.9701" y="166.851" width="49.4252" height="56.1628" filterUnits="userSpaceOnUse" color-interpolation-filters="sRGB">
<feFlood flood-opacity="0" result="BackgroundImageFix"/>
<feBlend mode="normal" in="SourceGraphic" in2="BackgroundImageFix" result="shape"/>
<feGaussianBlur stdDeviation="8" result="effect1_foregroundBlur_1335_237"/>
</filter>
<filter id="filter8_f_1335_237" x="187.942" y="69.0385" width="41.1256" height="104.524" filterUnits="userSpaceOnUse" color-interpolation-filters="sRGB">
<feFlood flood-opacity="0" result="BackgroundImageFix"/>
<feBlend mode="normal" in="SourceGraphic" in2="BackgroundImageFix" result="shape"/>
<feGaussianBlur stdDeviation="2" result="effect1_foregroundBlur_1335_237"/>
</filter>
<filter id="filter9_f_1335_237" x="91.7517" y="152.747" width="61.5771" height="74.8069" filterUnits="userSpaceOnUse" color-interpolation-filters="sRGB">
<feFlood flood-opacity="0" result="BackgroundImageFix"/>
<feBlend mode="normal" in="SourceGraphic" in2="BackgroundImageFix" result="shape"/>
<feGaussianBlur stdDeviation="8" result="effect1_foregroundBlur_1335_237"/>
</filter>
<filter id="filter10_f_1335_237" x="142.998" y="44.6145" width="69.3429" height="82.953" filterUnits="userSpaceOnUse" color-interpolation-filters="sRGB">
<feFlood flood-opacity="0" result="BackgroundImageFix"/>
<feBlend mode="normal" in="SourceGraphic" in2="BackgroundImageFix" result="shape"/>
<feGaussianBlur stdDeviation="8" result="effect1_foregroundBlur_1335_237"/>
</filter>
<filter id="filter11_f_1335_237" x="168.141" y="61.4551" width="49.943" height="55.9382" filterUnits="userSpaceOnUse" color-interpolation-filters="sRGB">
<feFlood flood-opacity="0" result="BackgroundImageFix"/>
<feBlend mode="normal" in="SourceGraphic" in2="BackgroundImageFix" result="shape"/>
<feGaussianBlur stdDeviation="8" result="effect1_foregroundBlur_1335_237"/>
</filter>
<filter id="filter12_f_1335_237" x="120.185" y="200.378" width="64.7418" height="38.9004" filterUnits="userSpaceOnUse" color-interpolation-filters="sRGB">
<feFlood flood-opacity="0" result="BackgroundImageFix"/>
<feBlend mode="normal" in="SourceGraphic" in2="BackgroundImageFix" result="shape"/>
<feGaussianBlur stdDeviation="6" result="effect1_foregroundBlur_1335_237"/>
</filter>
<filter id="filter13_f_1335_237" x="176.17" y="179.309" width="12.4152" height="9.77051" filterUnits="userSpaceOnUse" color-interpolation-filters="sRGB">
<feFlood flood-opacity="0" result="BackgroundImageFix"/>
<feBlend mode="normal" in="SourceGraphic" in2="BackgroundImageFix" result="shape"/>
<feGaussianBlur stdDeviation="2" result="effect1_foregroundBlur_1335_237"/>
</filter>
<filter id="filter14_f_1335_237" x="182.17" y="179.309" width="12.4152" height="9.77051" filterUnits="userSpaceOnUse" color-interpolation-filters="sRGB">
<feFlood flood-opacity="0" result="BackgroundImageFix"/>
<feBlend mode="normal" in="SourceGraphic" in2="BackgroundImageFix" result="shape"/>
<feGaussianBlur stdDeviation="2" result="effect1_foregroundBlur_1335_237"/>
</filter>
<filter id="filter15_f_1335_237" x="69.439" y="44.5" width="137.931" height="127.653" filterUnits="userSpaceOnUse" color-interpolation-filters="sRGB">
<feFlood flood-opacity="0" result="BackgroundImageFix"/>
<feBlend mode="normal" in="SourceGraphic" in2="BackgroundImageFix" result="shape"/>
<feGaussianBlur stdDeviation="0.25" result="effect1_foregroundBlur_1335_237"/>
</filter>
<filter id="filter16_f_1335_237" x="118.897" y="197.422" width="32.9886" height="66.4375" filterUnits="userSpaceOnUse" color-interpolation-filters="sRGB">
<feFlood flood-opacity="0" result="BackgroundImageFix"/>
<feBlend mode="normal" in="SourceGraphic" in2="BackgroundImageFix" result="shape"/>
<feGaussianBlur stdDeviation="6" result="effect1_foregroundBlur_1335_237"/>
</filter>
<linearGradient id="paint0_linear_1335_237" x1="312" y1="0" x2="0" y2="312" gradientUnits="userSpaceOnUse">
<stop stop-color="#E4B8EA"/>
<stop offset="1" stop-color="#6B7DBF"/>
</linearGradient>
<linearGradient id="paint1_linear_1335_237" x1="169.094" y1="241.943" x2="233.094" y2="384.443" gradientUnits="userSpaceOnUse">
<stop stop-color="#D3A27A"/>
<stop offset="1" stop-color="#8C6546"/>
</linearGradient>
<radialGradient id="paint2_radial_1335_237" cx="0" cy="0" r="1" gradientUnits="userSpaceOnUse" gradientTransform="translate(183.094 277.443) rotate(170.272) scale(177.553 454.346)">
<stop stop-color="#4C505C"/>
<stop offset="0.47283" stop-color="#4A4E57"/>
<stop offset="1" stop-color="#72767F"/>
</radialGradient>
<linearGradient id="paint3_linear_1335_237" x1="212.094" y1="272.943" x2="227.5" y2="262.443" gradientUnits="userSpaceOnUse">
<stop stop-color="#474B56"/>
<stop offset="1" stop-color="#353844"/>
</linearGradient>
<linearGradient id="paint4_linear_1335_237" x1="160.094" y1="281.443" x2="129.594" y2="301.943" gradientUnits="userSpaceOnUse">
<stop stop-color="#474B56"/>
<stop offset="1" stop-color="#343843"/>
</linearGradient>
<radialGradient id="paint5_radial_1335_237" cx="0" cy="0" r="1" gradientUnits="userSpaceOnUse" gradientTransform="translate(183.094 277.443) rotate(170.272) scale(177.553 454.346)">
<stop stop-color="#E2E7F4"/>
<stop offset="0.47283" stop-color="#EEF1F4"/>
<stop offset="1" stop-color="#D4D6DD"/>
</radialGradient>
<linearGradient id="paint6_linear_1335_237" x1="212.094" y1="272.943" x2="227.5" y2="262.443" gradientUnits="userSpaceOnUse">
<stop stop-color="#E8EAEE"/>
<stop offset="1" stop-color="#EEEFF3"/>
</linearGradient>
<linearGradient id="paint7_linear_1335_237" x1="160.094" y1="281.443" x2="129.594" y2="301.943" gradientUnits="userSpaceOnUse">
<stop stop-color="#F3F4F8"/>
<stop offset="1" stop-color="#EFEFF0"/>
</linearGradient>
<linearGradient id="paint8_linear_1335_237" x1="111" y1="63.9429" x2="232.5" y2="231.943" gradientUnits="userSpaceOnUse">
<stop/>
<stop offset="1" stop-color="#666666"/>
</linearGradient>
<clipPath id="clip0_1335_237">
<rect width="312" height="312" fill="white"/>
</clipPath>
</defs>
</svg>
