<svg width="130" height="131" viewBox="0 0 130 131" fill="none" xmlns="http://www.w3.org/2000/svg">
<g clip-path="url(#clip0_798_6038)">
<path d="M65 130.5C100.899 130.5 130 101.399 130 65.5C130 29.6015 100.899 0.5 65 0.5C29.1015 0.5 0 29.6015 0 65.5C0 101.399 29.1015 130.5 65 130.5Z" fill="#1B1B1B"/>
<path fill-rule="evenodd" clip-rule="evenodd" d="M65 0.5C100.874 0.5 130 29.6255 130 65.5C130 101.374 100.874 130.5 65 130.5C29.1255 130.5 0 101.374 0 65.5C0 29.6255 29.1255 0.5 65 0.5ZM65 6.35C97.6458 6.35 124.15 32.8542 124.15 65.5C124.15 98.1458 97.6458 124.65 65 124.65C32.3542 124.65 5.85 98.1458 5.85 65.5C5.85 32.8542 32.3542 6.35 65 6.35Z" fill="url(#paint0_linear_798_6038)"/>
<path fill-rule="evenodd" clip-rule="evenodd" d="M87.545 44.3544C87.7857 43.8048 87.733 43.1709 87.4048 42.6688C87.0764 42.1665 86.5169 41.8638 85.9169 41.8638C85.0804 41.8638 84.2213 41.8638 83.6151 41.8638C83.1114 41.8638 82.6552 42.1618 82.4528 42.623C80.4267 47.2373 69.7334 71.5923 66.1621 79.7263C65.9597 80.1874 65.5035 80.4853 64.9996 80.4853C64.4959 80.4853 64.0397 80.1874 63.8372 79.7263C60.266 71.5923 49.5727 47.2373 47.5466 42.623C47.3441 42.1618 46.888 41.8638 46.3843 41.8638C45.7781 41.8638 44.919 41.8638 44.0826 41.8638C43.4825 41.8638 42.9232 42.1665 42.5948 42.6688C42.2665 43.1709 42.2139 43.8048 42.4545 44.3544C46.2825 53.0914 59.0087 82.1387 61.6086 88.0724C61.8918 88.719 62.5306 89.1367 63.2365 89.1367C64.2591 89.1367 65.7403 89.1367 66.7629 89.1367C67.4688 89.1367 68.1076 88.719 68.3908 88.0724C70.9907 82.1387 83.717 53.0914 87.545 44.3544Z" fill="white"/>
<path fill-rule="evenodd" clip-rule="evenodd" d="M66.319 64.7384C66.0469 65.2098 65.5439 65.5002 64.9997 65.5002C64.4555 65.5002 63.9526 65.2098 63.6804 64.7384C60.9184 59.9544 54.555 48.933 51.793 44.149C51.5208 43.6776 51.5208 43.097 51.793 42.6256C52.0652 42.1542 52.5681 41.8638 53.1123 41.8638C58.6365 41.8638 71.3629 41.8638 76.8871 41.8638C77.4313 41.8638 77.9342 42.1542 78.2064 42.6256C78.4786 43.097 78.4786 43.6776 78.2064 44.149C75.4444 48.933 69.0811 59.9544 66.319 64.7384Z" fill="url(#paint1_linear_798_6038)"/>
</g>
<defs>
<linearGradient id="paint0_linear_798_6038" x1="65.0002" y1="0.5" x2="65.0002" y2="130.5" gradientUnits="userSpaceOnUse">
<stop stop-color="#F04E98"/>
<stop offset="0.5" stop-color="#5F65D4"/>
<stop offset="1" stop-color="#4E98F0"/>
</linearGradient>
<linearGradient id="paint1_linear_798_6038" x1="64.9997" y1="41.8638" x2="64.9997" y2="88.8778" gradientUnits="userSpaceOnUse">
<stop stop-color="#F04E98"/>
<stop offset="0.5" stop-color="#5F65D4"/>
<stop offset="1" stop-color="#4E98F0"/>
</linearGradient>
<clipPath id="clip0_798_6038">
<rect width="130" height="130" fill="white" transform="translate(0 0.5)"/>
</clipPath>
</defs>
</svg>
