<svg width="132" height="164" fill="none" xmlns="http://www.w3.org/2000/svg">
    <g clip-path="url(#a)">
        <path d="M2 10a8 8 0 0 1 8-8h112a8 8 0 0 1 8 8v152H2V10Z" fill="#1a1921" />
        <g filter="url(#b)">
            <ellipse cx="64.5" cy="72" rx="65.5" ry="77" fill="url(#c)" fill-opacity=".1" />
        </g>
        <path
            d="M46 76.8v-.6l.5-.4h5l.3.4.2.6a1 1 0 0 1-.5.9 1 1 0 0 1-.6.1h-4a1 1 0 0 1-.9-.5 1 1 0 0 1 0-.5Zm3.9 0 .1-.6.4-.4h5l.4.4.1.6a1 1 0 0 1-.5.9 1 1 0 0 1-.5.1h-4a1 1 0 0 1-.9-.5 1 1 0 0 1-.1-.5Zm8.1 0 .1-.6.4-.4h5l.4.4.1.6a1 1 0 0 1-.5.9 1 1 0 0 1-.5.1h-4a1 1 0 0 1-.9-.5 1 1 0 0 1 0-.5Zm4 0v-.6l.5-.4h3l.4.4.1.6a1 1 0 0 1-.5.9 1 1 0 0 1-.5.1h-2a1 1 0 0 1-.9-.5 1 1 0 0 1-.2-.5Zm2 0v-.6l.5-.4h5l.3.4.2.6a1 1 0 0 1-.5.9 1 1 0 0 1-.6.1h-4a1 1 0 0 1-.9-.5 1 1 0 0 1 0-.5Zm3.9 0 .1-.6.4-.4h3.1l.3.4.2.6a1 1 0 0 1-.5.9 1 1 0 0 1-.6.1h-2a1 1 0 0 1-.9-.5 1 1 0 0 1-.1-.5Zm2 0 .1-.6.4-.4h5l.4.4.1.6a1 1 0 0 1-.5.9 1 1 0 0 1-.5.1h-4a1 1 0 0 1-.9-.5 1 1 0 0 1-.1-.5Zm4 0v-.6l.4-.4h5l.4.4.1.6a1 1 0 0 1-.5.9 1 1 0 0 1-.5.1h-4a1 1 0 0 1-.9-.5 1 1 0 0 1 0-.5Zm3.8 0c0-.2 0-.4.2-.6l.3-.4h3.1l.4.4.1.6a1 1 0 0 1-.5.9 1 1 0 0 1-.5.1h-2a1 1 0 0 1-.9-.5 1 1 0 0 1-.2-.5Zm2 0c0-.2 0-.4.2-.6l.4-.4h5l.3.4.2.6a1 1 0 0 1-.5.9 1 1 0 0 1-.6.1h-4a1 1 0 0 1-.9-.5 1 1 0 0 1 0-.5Z"
            fill="#CCC" />
        <rect x="32" y="85" width="25" height="21" rx="2" fill="#35303f" />
        <rect x="60" y="85" width="39" height="21" rx="2" fill="#35303f" />
        <rect x="32" y="109" width="41" height="22" rx="2" fill="#33303f" />
        <rect x="76" y="109" width="23" height="22" rx="2" fill="#32303f" />
        <path
            d="M27.8 39.4c0-.2 0-.4.2-.6 0-.2.2-.3.4-.4l.6-.2h4.5c.2 0 .4 0 .6.2l.4.4.2.6a1.2 1.2 0 0 1-.6 1c-.2.2-.4.2-.6.2H29l-.6-.1-.4-.4-.2-.7Zm4.5 0c0-.2 0-.4.2-.6 0-.2.2-.3.4-.4l.6-.2H38c.2 0 .4 0 .6.2l.4.4.2.6a1.2 1.2 0 0 1-.6 1c-.2.2-.4.2-.6.2h-4.5l-.6-.1-.4-.4c-.2-.2-.2-.4-.2-.7Zm4.5 0 .1-.6.5-.4.6-.2h4.5c.2 0 .4 0 .6.2l.4.4.2.6a1.2 1.2 0 0 1-.6 1c-.2.2-.4.2-.6.2H38l-.6-.1-.5-.4-.1-.7Zm9.3 0 .1-.6.5-.4.6-.2h2.3c.2 0 .4 0 .6.2l.4.4.2.6a1.2 1.2 0 0 1-.6 1c-.2.2-.4.2-.6.2h-2.3l-.6-.1-.5-.4-.1-.7Zm2.3 0 .1-.6.4-.4.7-.2H54c.2 0 .4 0 .6.2l.4.4.2.6a1.2 1.2 0 0 1-.6 1c-.2.2-.4.2-.6.2h-4.5l-.7-.1-.4-.4-.1-.7Zm4.5 0 .1-.6.4-.4.6-.2h4.6c.2 0 .4 0 .6.2l.4.4.2.6a1.2 1.2 0 0 1-.6 1c-.2.2-.4.2-.6.2H54l-.6-.1-.4-.4-.1-.7Zm4.4 0 .2-.6.4-.4.6-.2h2.3c.3 0 .5 0 .7.2l.4.4.1.6a1.2 1.2 0 0 1-.5 1c-.2.2-.4.2-.7.2h-2.3l-.6-.1-.4-.4-.2-.7Zm2.3 0c0-.2 0-.4.2-.6l.4-.4.6-.2h4.5c.3 0 .5 0 .6.2l.5.4.1.6a1.2 1.2 0 0 1-.6 1c-.1.2-.3.2-.6.2h-4.5l-.6-.1-.4-.4-.2-.7Zm4.5 0c0-.2 0-.4.2-.6 0-.2.2-.3.4-.4l.6-.2h2.3c.3 0 .5 0 .6.2l.5.4.1.6a1.2 1.2 0 0 1-.6 1c-.1.2-.3.2-.6.2h-2.3l-.6-.1-.4-.4-.2-.7Zm7.1 0c0-.2 0-.4.2-.6 0-.2.2-.3.4-.4l.6-.2h2.3c.2 0 .4 0 .6.2l.4.4.2.6a1.2 1.2 0 0 1-.6 1c-.2.2-.4.2-.6.2h-2.3l-.6-.1-.4-.4-.2-.7Zm2.3 0c0-.2 0-.4.2-.6 0-.2.2-.3.4-.4l.6-.2H77c.2 0 .4 0 .6.2l.4.4.2.6a1.2 1.2 0 0 1-.6 1c-.2.2-.4.2-.6.2h-2.3l-.6-.1-.4-.4-.2-.7Zm2.3 0c0-.2 0-.4.2-.6 0-.2.2-.3.4-.4l.6-.2h4.5c.2 0 .4 0 .6.2l.4.4.2.6a1.2 1.2 0 0 1-.6 1c-.2.2-.4.2-.6.2H77l-.6-.1-.4-.4c-.2-.2-.2-.4-.2-.7Z"
            fill="#CCC" />
        <path
            d="m85 39.4.2-.6.5-.4.6-.2h4.5c.2 0 .4 0 .6.2l.4.4.2.6a1.2 1.2 0 0 1-.6 1c-.2.2-.4.2-.6.2h-4.5l-.6-.1-.5-.4-.1-.7Zm4.6 0 .1-.6.5-.4.6-.2h4.5c.2 0 .4 0 .6.2l.4.4.2.6a1.2 1.2 0 0 1-.6 1c-.2.2-.4.2-.6.2h-4.5l-.6-.1-.5-.4-.1-.7Zm4.5 0 .1-.6.4-.4.7-.2h2.3c.2 0 .4 0 .6.2l.4.4.2.6a1.2 1.2 0 0 1-.6 1c-.2.2-.4.2-.6.2h-2.3l-.7-.1-.4-.4-.1-.7Zm2.3 0 .1-.6.4-.4.6-.2h4.6c.2 0 .4 0 .6.2l.4.4.2.6a1.2 1.2 0 0 1-.6 1c-.2.2-.4.2-.6.2h-4.6l-.6-.1-.4-.4-.1-.7Z"
            fill="#b770ee" />
        <path
            d="m32.1 46 .1-.4.3-.3.5-.1h3.4l.4.1c.2 0 .3.2.4.3v.5a.9.9 0 0 1-.4.8h-4.3a.9.9 0 0 1-.4-.8Zm3.4 0v-.4l.4-.3.5-.1h3.3l.5.1.3.3.1.5a.9.9 0 0 1-.4.8h-4.3a.9.9 0 0 1-.4-.8Zm3.3 0c0-.1 0-.3.2-.4l.3-.3.4-.1h3.4l.5.1.3.3.1.5a.9.9 0 0 1-.4.8h-4.3a.9.9 0 0 1-.4-.8Zm7 0 .1-.4.3-.3.5-.1h1.7l.5.1.3.3.1.5a.9.9 0 0 1-.4.8h-2.7a.9.9 0 0 1-.4-.8Zm1.7 0 .1-.4.4-.3.4-.1h3.4l.5.1.3.3v.5a.9.9 0 0 1-.3.8H48a.9.9 0 0 1-.4-.8Zm3.4 0 .1-.4.3-.3.5-.1h3.4l.4.1c.2 0 .3.2.3.3l.2.5a.9.9 0 0 1-.5.8h-4.3a.9.9 0 0 1-.4-.8Zm3.4 0v-.4l.4-.3.5-.1h1.7l.4.1c.2 0 .3.2.4.3v.5a.9.9 0 0 1-.4.8h-2.6a.9.9 0 0 1-.4-.8Zm1.7 0 .1-.4.3-.3.5-.1h3.4l.4.1.3.3.1.5a.9.9 0 0 1-.4.8h-4.3a.9.9 0 0 1-.4-.8Zm3.3 0c0-.1 0-.3.2-.4l.3-.3.4-.1H62l.4.1c.2 0 .3.2.3.3l.2.5a.9.9 0 0 1-.5.8h-2.6a.9.9 0 0 1-.4-.8Zm5.4 0v-.4l.4-.3.5-.1h1.7l.4.1c.2 0 .3.2.4.3v.5a.9.9 0 0 1-.4.8h-2.6a.9.9 0 0 1-.4-.8Zm1.7 0 .1-.4.3-.3.5-.1H69l.5.1.3.3v.5a.9.9 0 0 1-.3.8h-2.7a.9.9 0 0 1-.4-.8Zm1.7 0 .1-.4.3-.3.5-.1h3.4l.4.1c.2 0 .3.2.3.3l.2.5a.9.9 0 0 1-.5.8h-4.3a.9.9 0 0 1-.4-.8Zm7 0v-.4l.4-.3.5-.1h3.3l.5.1.3.3.1.5a.9.9 0 0 1-.4.8h-4.3a.9.9 0 0 1-.4-.8Zm3.3 0c0-.1 0-.3.2-.4l.3-.3.4-.1h3.4l.5.1.3.3.1.5a.9.9 0 0 1-.4.8h-4.3a.9.9 0 0 1-.4-.8Zm3.4 0 .1-.4.3-.3.5-.1h1.7l.5.1.3.3.1.5a.9.9 0 0 1-.4.8h-2.7a.9.9 0 0 1-.4-.8Zm1.7 0 .1-.4.4-.3.4-.1h3.4l.5.1.3.3v.5a.9.9 0 0 1-.3.8H84a.9.9 0 0 1-.4-.8Z"
            fill="#CCC" />
    </g>
    <path d="M130 163c.6 0 1-.4 1-1V10c0-5-4-9-9-9H10c-5 0-9 4-9 9v152c0 .6.4 1 1 1h128Z" stroke="#32303f"
        stroke-width="2" stroke-linejoin="round" />
    <defs>
        <linearGradient id="c" x1="113.6" y1="-4.2" x2="80.5" y2="-2.8" gradientUnits="userSpaceOnUse">
            <stop stop-color="#c087eb" />
            <stop offset="1" stop-color="#61a2f8" />
        </linearGradient>
        <clipPath id="a">
            <path d="M2 10a8 8 0 0 1 8-8h112a8 8 0 0 1 8 8v152H2V10Z" fill="#fff" />
        </clipPath>
        <filter id="b" x="-65" y="-69" width="259" height="282" filterUnits="userSpaceOnUse"
            color-interpolation-filters="sRGB">
            <feFlood flood-opacity="0" result="BackgroundImageFix" />
            <feBlend in="SourceGraphic" in2="BackgroundImageFix" result="shape" />
            <feGaussianBlur stdDeviation="32" result="effect1_foregroundBlur_797_2339" />
        </filter>
    </defs>
</svg>