<svg width="256" height="256" viewBox="0 0 256 256" fill="none" xmlns="http://www.w3.org/2000/svg">
    <path
        d="M111.067 4.61881C121.525 -1.5396 134.475 -1.5396 144.933 4.6188L148.295 6.59863C153.888 9.8923 160.312 11.4841 166.786 11.181L170.679 10.9988C182.785 10.4321 194.252 16.4831 200.666 26.8224L202.727 30.1463C206.157 35.676 211.109 40.0867 216.983 42.8436L220.513 44.5008C231.495 49.6557 238.852 60.3714 239.751 72.523L240.041 76.4296C240.522 82.9285 242.868 89.1477 246.794 94.333L249.154 97.45C256.495 107.145 258.056 120.071 253.236 131.251L251.686 134.845C249.109 140.825 248.311 147.428 249.391 153.854L250.04 157.716C252.059 169.731 247.466 181.906 238.031 189.553L234.997 192.012C229.951 196.102 226.193 201.576 224.179 207.77L222.968 211.493C219.202 223.075 209.508 231.71 197.619 234.072L193.796 234.832C187.438 236.096 181.58 239.187 176.933 243.73L174.14 246.462C165.452 254.957 152.878 258.073 141.258 254.61L137.522 253.497C131.308 251.645 124.692 251.645 118.478 253.497L114.742 254.61C103.122 258.073 90.548 254.957 81.8599 246.462L79.0668 243.73C74.4202 239.187 68.5624 236.096 62.2036 234.832L58.3812 234.072C46.4916 231.71 36.798 223.075 33.032 211.493L31.8213 207.77C29.8071 201.576 26.049 196.102 21.0026 192.012L17.9692 189.553C8.5336 181.906 3.94127 169.731 5.96008 157.716L6.6091 153.854C7.68881 147.428 6.8914 140.825 4.31352 134.845L2.76395 131.251C-2.0561 120.071 -0.495085 107.145 6.84607 97.45L9.20614 94.333C13.1324 89.1477 15.4783 82.9286 15.9595 76.4296L16.2487 72.523C17.1485 60.3714 24.5052 49.6557 35.487 44.5008L39.0174 42.8436C44.8907 40.0867 49.8425 35.676 53.2726 30.1463L55.3344 26.8224C61.7478 16.4831 73.2149 10.4321 85.3215 10.9988L89.2135 11.181C95.6884 11.4841 102.112 9.8923 107.705 6.59864L111.067 4.61881Z"
        fill="#FFF" />
</svg>