<svg width="192" height="139" viewBox="0 0 192 139" fill="none" xmlns="http://www.w3.org/2000/svg">
<path d="M192 117.333C192 129.115 182.448 138.667 170.667 138.667H21.3333C9.552 138.667 0 129.115 0 117.333V21.3333C0 9.552 9.552 0 21.3333 0H170.667C182.448 0 192 9.552 192 21.3333V117.333Z" fill="#CCD6DD"/>
<path d="M63.7332 67.392L3.39715 127.728C3.25315 127.877 3.19982 128.064 3.07715 128.213C4.89048 131.253 7.41848 133.776 10.4585 135.595C10.6131 135.472 10.7945 135.419 10.9385 135.275L71.2798 74.9333C73.3598 72.848 73.3598 69.4773 71.2798 67.392C69.1892 65.3067 65.8185 65.3067 63.7332 67.392ZM188.922 128.213C188.81 128.064 188.746 127.877 188.602 127.733L128.272 67.392C126.181 65.3067 122.81 65.3067 120.725 67.392C118.64 69.4773 118.64 72.848 120.725 74.9333L181.061 135.275C181.2 135.413 181.392 135.472 181.541 135.595C184.586 133.781 187.109 131.253 188.922 128.213Z" fill="#99AAB5"/>
<path d="M170.667 0H21.3333C9.552 0 0 9.552 0 21.3333V26.8267L77.4827 104.139C87.584 114.235 104.085 114.235 114.197 104.139L192 26.7147V21.3333C192 9.552 182.448 0 170.667 0Z" fill="#99AAB5"/>
<path d="M170.667 0H21.3335C12.8642 0 5.60549 4.98133 2.16016 12.1333L80.9122 90.8907C89.2428 99.2213 102.757 99.2213 111.083 90.8907L189.84 12.1333C186.395 4.98133 179.141 0 170.667 0Z" fill="#E1E8ED"/>
<path d="M80 22.731C80 18.862 81.9703 16 85.3981 16H104.939C109.468 16 111.277 18.597 111.277 21.3C111.277 23.9288 109.393 26.6 105.69 26.6H91.0715V37.2H104.745C108.61 37.2 110.494 39.7917 110.494 42.5C110.494 45.1288 108.518 47.8 104.745 47.8H91.0715V58.4H106.402C110.175 58.4 112 60.9917 112 63.7C112 66.3288 110.094 69 106.402 69H86.0729C82.6019 69 80 66.1857 80 62.7036V22.731Z" fill="#66757F"/>
</svg>
