<svg xmlns="http://www.w3.org/2000/svg" height="40" viewBox="0 -960 960 960" width="40"><path d="M481.333-413.999q58 0 98.334-40.334Q620-494.666 620-552.666t-40.333-98.333q-40.334-40.333-98.334-40.333T383-650.999q-40.333 40.333-40.333 98.333T383-454.333q40.333 40.334 98.333 40.334ZM186.666-120q-27 0-46.833-19.833T120-186.666v-586.668q0-27 19.833-46.833T186.666-840h586.668q27 0 46.833 19.833T840-773.334v586.668q0 27-19.833 46.833T773.334-120H186.666Zm0-66.666h586.668v-40q-58-55-132.501-88.167Q566.333-348 480-348t-160.834 33.167q-74.5 33.167-132.5 88.167v40Z"/></svg>