<svg xmlns="http://www.w3.org/2000/svg" height="40" viewBox="0 -960 960 960" width="40"><path d="M39.667-686q0-97.333 68.5-165.833T274-920.333l-.667 66.999q-69.333 0-118 48.667t-48.667 118l-67 .667Zm160.999 483q-91-91-91.333-218.333Q109-548.666 200-639.666L282-722l26 26q23.667 23.667 24 56.833.334 33.167-24 57.5l-35.334 35.334q-9.999 10-9.999 23.5t9.999 23.5l20 20.666q26.667 26.666 26.667 64.666 0 38.001-26.667 64.667L279.332-336l37 37 13.334-13.334q42-42 42-101.167 0-59.166-42.334-101.499L322-522.333l22-22.668q22.667-22.666 32.333-51.166 9.667-28.5 5.667-56.5l171-171q10-9.999 23.833-9.999 13.833 0 23.833 9.999 10 10 10 23.834 0 13.833-10 23.833L392.332-567.666l54.667 54.667 264.334-263.334q10-10 23.333-10 13.334 0 23.334 10T768-753q0 13.333-10 23.333L494.666-465.999l54.667 55.333L784.667-646q10-10 23.833-10 13.833 0 23.833 10 10 10 10 23.5t-10 23.5L596.999-363.666l54.667 55.334 180.001-180.001q10-10 23.833-10 13.833 0 23.833 10 10 10 10 23.5t-10 23.5L638.666-201q-91 91-218.666 90.334-127.667-.667-219.334-92.334ZM686-39.667l.667-66.999q69.333 0 118-48.667t48.667-118l66.999-.667q0 97.333-68.5 165.833T686-39.667Z"/></svg>