<svg width="128" height="128" viewBox="0 0 128 128" fill="none" xmlns="http://www.w3.org/2000/svg">
<rect width="128" height="128" rx="64" fill="#EADDFF"/>
<g clip-path="url(#clip0_54897_28965)">
<path d="M101.755 82.6626L65.939 103.582C65.4808 103.853 64.9587 103.997 64.4263 104C63.8938 104.003 63.3702 103.864 62.909 103.599L26.2616 82.6121C25.7951 82.3442 25.4084 81.9571 25.1411 81.4905C24.8739 81.024 24.7358 80.4948 24.7409 79.9573C24.746 79.4198 24.8943 78.8933 25.1704 78.4319C25.4465 77.9705 25.8406 77.5909 26.3121 77.3319L62.1346 57.7076C62.5779 57.4649 63.0747 57.3363 63.5802 57.3334C64.0857 57.3304 64.5839 57.4533 65.03 57.6908L101.677 77.3655C102.149 77.6248 102.544 78.004 102.822 78.4649C103.1 78.9258 103.25 79.4518 103.259 79.9897C103.267 80.5275 103.133 81.0581 102.87 81.5275C102.607 81.9969 102.225 82.3885 101.762 82.6626H101.755Z" fill="#9A82DB"/>
<path d="M101.755 66.0257L65.939 87.2788C65.4808 87.554 64.9587 87.7007 64.4263 87.7037C63.8938 87.7067 63.3702 87.5659 62.909 87.2959L26.2616 65.9744C25.7951 65.7022 25.4084 65.3089 25.1411 64.8349C24.8739 64.3609 24.7358 63.8232 24.7409 63.2771C24.746 62.731 24.8943 62.1962 25.1704 61.7274C25.4465 61.2587 25.8406 60.873 26.3121 60.6099L62.1346 40.6765C62.5779 40.43 63.0747 40.2993 63.5802 40.2963C64.0857 40.2934 64.5839 40.4182 65.03 40.6595L101.677 60.6483C102.149 60.9117 102.544 61.297 102.822 61.7652C103.1 62.2334 103.25 62.7679 103.259 63.3143C103.267 63.8608 103.133 64.3998 102.87 64.8767C102.607 65.3536 102.225 65.7515 101.762 66.0299L101.755 66.0257Z" fill="#B69DF8"/>
<path d="M101.755 49.3315L65.939 70.2484C65.4808 70.5193 64.9587 70.6637 64.4263 70.6666C63.8938 70.6696 63.3702 70.531 62.909 70.2652L26.2616 49.2811C25.7951 49.0131 25.4084 48.626 25.1411 48.1594C24.8739 47.6928 24.7358 47.1635 24.7409 46.626C24.746 46.0884 24.8943 45.5619 25.1704 45.1005C25.4465 44.6391 25.8406 44.2594 26.3121 44.0004L62.1346 24.3743C62.5779 24.1316 63.0747 24.003 63.5802 24.0001C64.0857 23.9971 64.5839 24.12 65.03 24.3575L101.677 44.034C102.149 44.2933 102.544 44.6726 102.822 45.1335C103.1 45.5944 103.25 46.1204 103.259 46.6584C103.267 47.1963 103.133 47.7269 102.87 48.1964C102.607 48.6658 102.225 49.0575 101.762 49.3315H101.755Z" fill="#D0BCFF"/>
</g>
<defs>
<clipPath id="clip0_54897_28965">
<rect width="80" height="80" fill="white" transform="translate(24 24)"/>
</clipPath>
</defs>
</svg>
