<svg width="132" height="162" viewBox="0 0 132 162" fill="none" xmlns="http://www.w3.org/2000/svg">
<g clip-path="url(#clip0_972_1734)">
<path d="M2 10C2 5.58172 5.58172 2 10 2H122C126.418 2 130 5.58172 130 10V162H2V10Z" fill="#191C21"/>
<g filter="url(#filter0_f_972_1734)">
<ellipse cx="64.5" cy="72" rx="65.5" ry="77" fill="url(#paint0_linear_972_1734)" fill-opacity="0.1"/>
</g>
<path d="M45.95 112.753C45.95 112.552 45.9967 112.375 46.09 112.221C46.1787 112.062 46.3023 111.939 46.461 111.85C46.615 111.757 46.7923 111.71 46.993 111.71H50.941C51.1417 111.71 51.319 111.757 51.473 111.85C51.6317 111.939 51.7553 112.062 51.844 112.221C51.9373 112.375 51.984 112.552 51.984 112.753V112.767C51.984 112.968 51.9373 113.147 51.844 113.306C51.7553 113.46 51.6317 113.584 51.473 113.677C51.319 113.766 51.1417 113.81 50.941 113.81H46.993C46.7923 113.81 46.615 113.766 46.461 113.677C46.3023 113.584 46.1787 113.46 46.09 113.306C45.9967 113.147 45.95 112.968 45.95 112.767V112.753ZM49.8807 112.753C49.8807 112.552 49.9273 112.375 50.0207 112.221C50.1093 112.062 50.233 111.939 50.3917 111.85C50.5457 111.757 50.723 111.71 50.9237 111.71H54.8717C55.0723 111.71 55.2497 111.757 55.4037 111.85C55.5623 111.939 55.686 112.062 55.7747 112.221C55.868 112.375 55.9147 112.552 55.9147 112.753V112.767C55.9147 112.968 55.868 113.147 55.7747 113.306C55.686 113.46 55.5623 113.584 55.4037 113.677C55.2497 113.766 55.0723 113.81 54.8717 113.81H50.9237C50.723 113.81 50.5457 113.766 50.3917 113.677C50.233 113.584 50.1093 113.46 50.0207 113.306C49.9273 113.147 49.8807 112.968 49.8807 112.767V112.753ZM58.0086 112.753C58.0086 112.552 58.0553 112.375 58.1486 112.221C58.2373 112.062 58.3609 111.939 58.5196 111.85C58.6736 111.757 58.8509 111.71 59.0516 111.71H62.9996C63.2003 111.71 63.3776 111.757 63.5316 111.85C63.6903 111.939 63.8139 112.062 63.9026 112.221C63.9959 112.375 64.0426 112.552 64.0426 112.753V112.767C64.0426 112.968 63.9959 113.147 63.9026 113.306C63.8139 113.46 63.6903 113.584 63.5316 113.677C63.3776 113.766 63.2003 113.81 62.9996 113.81H59.0516C58.8509 113.81 58.6736 113.766 58.5196 113.677C58.3609 113.584 58.2373 113.46 58.1486 113.306C58.0553 113.147 58.0086 112.968 58.0086 112.767V112.753ZM61.9393 112.753C61.9393 112.552 61.9859 112.375 62.0793 112.221C62.1679 112.062 62.2916 111.939 62.4503 111.85C62.6043 111.757 62.7816 111.71 62.9823 111.71H64.9983C65.1989 111.71 65.3763 111.757 65.5303 111.85C65.6889 111.939 65.8126 112.062 65.9013 112.221C65.9946 112.375 66.0413 112.552 66.0413 112.753V112.767C66.0413 112.968 65.9946 113.147 65.9013 113.306C65.8126 113.46 65.6889 113.584 65.5303 113.677C65.3763 113.766 65.1989 113.81 64.9983 113.81H62.9823C62.7816 113.81 62.6043 113.766 62.4503 113.677C62.2916 113.584 62.1679 113.46 62.0793 113.306C61.9859 113.147 61.9393 112.968 61.9393 112.767V112.753ZM63.9422 112.753C63.9422 112.552 63.9889 112.375 64.0822 112.221C64.1709 112.062 64.2945 111.939 64.4532 111.85C64.6072 111.757 64.7845 111.71 64.9852 111.71H68.9332C69.1339 111.71 69.3112 111.757 69.4652 111.85C69.6239 111.939 69.7475 112.062 69.8362 112.221C69.9295 112.375 69.9762 112.552 69.9762 112.753V112.767C69.9762 112.968 69.9295 113.147 69.8362 113.306C69.7475 113.46 69.6239 113.584 69.4652 113.677C69.3112 113.766 69.1339 113.81 68.9332 113.81H64.9852C64.7845 113.81 64.6072 113.766 64.4532 113.677C64.2945 113.584 64.1709 113.46 64.0822 113.306C63.9889 113.147 63.9422 112.968 63.9422 112.767V112.753ZM67.8729 112.753C67.8729 112.552 67.9195 112.375 68.0129 112.221C68.1015 112.062 68.2252 111.939 68.3839 111.85C68.5379 111.757 68.7152 111.71 68.9159 111.71H70.9319C71.1325 111.71 71.3099 111.757 71.4639 111.85C71.6225 111.939 71.7462 112.062 71.8349 112.221C71.9282 112.375 71.9749 112.552 71.9749 112.753V112.767C71.9749 112.968 71.9282 113.147 71.8349 113.306C71.7462 113.46 71.6225 113.584 71.4639 113.677C71.3099 113.766 71.1325 113.81 70.9319 113.81H68.9159C68.7152 113.81 68.5379 113.766 68.3839 113.677C68.2252 113.584 68.1015 113.46 68.0129 113.306C67.9195 113.147 67.8729 112.968 67.8729 112.767V112.753ZM69.8758 112.753C69.8758 112.552 69.9224 112.375 70.0158 112.221C70.1044 112.062 70.2281 111.939 70.3868 111.85C70.5408 111.757 70.7181 111.71 70.9188 111.71H74.8668C75.0674 111.71 75.2448 111.757 75.3988 111.85C75.5574 111.939 75.6811 112.062 75.7698 112.221C75.8631 112.375 75.9098 112.552 75.9098 112.753V112.767C75.9098 112.968 75.8631 113.147 75.7698 113.306C75.6811 113.46 75.5574 113.584 75.3988 113.677C75.2448 113.766 75.0674 113.81 74.8668 113.81H70.9188C70.7181 113.81 70.5408 113.766 70.3868 113.677C70.2281 113.584 70.1044 113.46 70.0158 113.306C69.9224 113.147 69.8758 112.968 69.8758 112.767V112.753ZM73.8064 112.753C73.8064 112.552 73.8531 112.375 73.9464 112.221C74.0351 112.062 74.1588 111.939 74.3174 111.85C74.4714 111.757 74.6488 111.71 74.8494 111.71H78.7974C78.9981 111.71 79.1754 111.757 79.3294 111.85C79.4881 111.939 79.6118 112.062 79.7004 112.221C79.7938 112.375 79.8404 112.552 79.8404 112.753V112.767C79.8404 112.968 79.7938 113.147 79.7004 113.306C79.6118 113.46 79.4881 113.584 79.3294 113.677C79.1754 113.766 78.9981 113.81 78.7974 113.81H74.8494C74.6488 113.81 74.4714 113.766 74.3174 113.677C74.1588 113.584 74.0351 113.46 73.9464 113.306C73.8531 113.147 73.8064 112.968 73.8064 112.767V112.753ZM77.7371 112.753C77.7371 112.552 77.7838 112.375 77.8771 112.221C77.9658 112.062 78.0894 111.939 78.2481 111.85C78.4021 111.757 78.5794 111.71 78.7801 111.71H80.7961C80.9968 111.71 81.1741 111.757 81.3281 111.85C81.4868 111.939 81.6104 112.062 81.6991 112.221C81.7924 112.375 81.8391 112.552 81.8391 112.753V112.767C81.8391 112.968 81.7924 113.147 81.6991 113.306C81.6104 113.46 81.4868 113.584 81.3281 113.677C81.1741 113.766 80.9968 113.81 80.7961 113.81H78.7801C78.5794 113.81 78.4021 113.766 78.2481 113.677C78.0894 113.584 77.9658 113.46 77.8771 113.306C77.7838 113.147 77.7371 112.968 77.7371 112.767V112.753ZM79.74 112.753C79.74 112.552 79.7867 112.375 79.88 112.221C79.9687 112.062 80.0924 111.939 80.251 111.85C80.405 111.757 80.5824 111.71 80.783 111.71H84.731C84.9317 111.71 85.109 111.757 85.263 111.85C85.4217 111.939 85.5454 112.062 85.634 112.221C85.7274 112.375 85.774 112.552 85.774 112.753V112.767C85.774 112.968 85.7274 113.147 85.634 113.306C85.5454 113.46 85.4217 113.584 85.263 113.677C85.109 113.766 84.9317 113.81 84.731 113.81H80.783C80.5824 113.81 80.405 113.766 80.251 113.677C80.0924 113.584 79.9687 113.46 79.88 113.306C79.7867 113.147 79.74 112.968 79.74 112.767V112.753Z" fill="#CCCCCC"/>
<rect x="20" y="120" width="45" height="13" rx="2" fill="#30353F"/>
<rect x="67" y="120" width="45" height="13" rx="2" fill="#30353F"/>
<rect x="44" y="135" width="45" height="13" rx="2" fill="#30353F"/>
<circle cx="66" cy="84" r="4" fill="#30353F"/>
<line x1="66" y1="82" x2="66" y2="85" stroke="#AAAAAA"/>
<path d="M19.1 57.074C19.1 56.902 19.14 56.75 19.22 56.618C19.296 56.482 19.402 56.376 19.538 56.3C19.67 56.22 19.822 56.18 19.994 56.18H23.378C23.55 56.18 23.702 56.22 23.834 56.3C23.97 56.376 24.076 56.482 24.152 56.618C24.232 56.75 24.272 56.902 24.272 57.074V57.086C24.272 57.258 24.232 57.412 24.152 57.548C24.076 57.68 23.97 57.786 23.834 57.866C23.702 57.942 23.55 57.98 23.378 57.98H19.994C19.822 57.98 19.67 57.942 19.538 57.866C19.402 57.786 19.296 57.68 19.22 57.548C19.14 57.412 19.1 57.258 19.1 57.086V57.074ZM22.4691 57.074C22.4691 56.902 22.5091 56.75 22.5891 56.618C22.6651 56.482 22.7711 56.376 22.9071 56.3C23.0391 56.22 23.1911 56.18 23.3631 56.18H26.7471C26.9191 56.18 27.0711 56.22 27.2031 56.3C27.3391 56.376 27.4451 56.482 27.5211 56.618C27.6011 56.75 27.6411 56.902 27.6411 57.074V57.086C27.6411 57.258 27.6011 57.412 27.5211 57.548C27.4451 57.68 27.3391 57.786 27.2031 57.866C27.0711 57.942 26.9191 57.98 26.7471 57.98H23.3631C23.1911 57.98 23.0391 57.942 22.9071 57.866C22.7711 57.786 22.6651 57.68 22.5891 57.548C22.5091 57.412 22.4691 57.258 22.4691 57.086V57.074ZM25.8383 57.074C25.8383 56.902 25.8783 56.75 25.9583 56.618C26.0343 56.482 26.1403 56.376 26.2763 56.3C26.4083 56.22 26.5603 56.18 26.7323 56.18H28.4603C28.6323 56.18 28.7843 56.22 28.9163 56.3C29.0523 56.376 29.1583 56.482 29.2343 56.618C29.3143 56.75 29.3543 56.902 29.3543 57.074V57.086C29.3543 57.258 29.3143 57.412 29.2343 57.548C29.1583 57.68 29.0523 57.786 28.9163 57.866C28.7843 57.942 28.6323 57.98 28.4603 57.98H26.7323C26.5603 57.98 26.4083 57.942 26.2763 57.866C26.1403 57.786 26.0343 57.68 25.9583 57.548C25.8783 57.412 25.8383 57.258 25.8383 57.086V57.074ZM27.5551 57.074C27.5551 56.902 27.5951 56.75 27.6751 56.618C27.7511 56.482 27.8571 56.376 27.9931 56.3C28.1251 56.22 28.2771 56.18 28.4491 56.18H30.1771C30.3491 56.18 30.5011 56.22 30.6331 56.3C30.7691 56.376 30.8751 56.482 30.9511 56.618C31.0311 56.75 31.0711 56.902 31.0711 57.074V57.086C31.0711 57.258 31.0311 57.412 30.9511 57.548C30.8751 57.68 30.7691 57.786 30.6331 57.866C30.5011 57.942 30.3491 57.98 30.1771 57.98H28.4491C28.2771 57.98 28.1251 57.942 27.9931 57.866C27.8571 57.786 27.7511 57.68 27.6751 57.548C27.5951 57.412 27.5551 57.258 27.5551 57.086V57.074ZM29.2719 57.074C29.2719 56.902 29.3119 56.75 29.3919 56.618C29.4679 56.482 29.5739 56.376 29.7099 56.3C29.8419 56.22 29.9939 56.18 30.1659 56.18H33.5499C33.7219 56.18 33.8739 56.22 34.0059 56.3C34.1419 56.376 34.2479 56.482 34.3239 56.618C34.4039 56.75 34.4439 56.902 34.4439 57.074V57.086C34.4439 57.258 34.4039 57.412 34.3239 57.548C34.2479 57.68 34.1419 57.786 34.0059 57.866C33.8739 57.942 33.7219 57.98 33.5499 57.98H30.1659C29.9939 57.98 29.8419 57.942 29.7099 57.866C29.5739 57.786 29.4679 57.68 29.3919 57.548C29.3119 57.412 29.2719 57.258 29.2719 57.086V57.074ZM32.641 57.074C32.641 56.902 32.681 56.75 32.761 56.618C32.837 56.482 32.943 56.376 33.079 56.3C33.211 56.22 33.363 56.18 33.535 56.18H36.919C37.091 56.18 37.243 56.22 37.375 56.3C37.511 56.376 37.617 56.482 37.693 56.618C37.773 56.75 37.813 56.902 37.813 57.074V57.086C37.813 57.258 37.773 57.412 37.693 57.548C37.617 57.68 37.511 57.786 37.375 57.866C37.243 57.942 37.091 57.98 36.919 57.98H33.535C33.363 57.98 33.211 57.942 33.079 57.866C32.943 57.786 32.837 57.68 32.761 57.548C32.681 57.412 32.641 57.258 32.641 57.086V57.074Z" fill="#4AC9FF"/>
<path d="M39.6078 57.074C39.6078 56.902 39.6478 56.75 39.7278 56.618C39.8038 56.482 39.9098 56.376 40.0458 56.3C40.1778 56.22 40.3298 56.18 40.5018 56.18H43.8858C44.0578 56.18 44.2098 56.22 44.3418 56.3C44.4778 56.376 44.5838 56.482 44.6598 56.618C44.7398 56.75 44.7798 56.902 44.7798 57.074V57.086C44.7798 57.258 44.7398 57.412 44.6598 57.548C44.5838 57.68 44.4778 57.786 44.3418 57.866C44.2098 57.942 44.0578 57.98 43.8858 57.98H40.5018C40.3298 57.98 40.1778 57.942 40.0458 57.866C39.9098 57.786 39.8038 57.68 39.7278 57.548C39.6478 57.412 39.6078 57.258 39.6078 57.086V57.074ZM42.977 57.074C42.977 56.902 43.017 56.75 43.097 56.618C43.173 56.482 43.279 56.376 43.415 56.3C43.547 56.22 43.699 56.18 43.871 56.18H45.599C45.771 56.18 45.923 56.22 46.055 56.3C46.191 56.376 46.297 56.482 46.373 56.618C46.453 56.75 46.493 56.902 46.493 57.074V57.086C46.493 57.258 46.453 57.412 46.373 57.548C46.297 57.68 46.191 57.786 46.055 57.866C45.923 57.942 45.771 57.98 45.599 57.98H43.871C43.699 57.98 43.547 57.942 43.415 57.866C43.279 57.786 43.173 57.68 43.097 57.548C43.017 57.412 42.977 57.258 42.977 57.086V57.074ZM44.6937 57.074C44.6937 56.902 44.7337 56.75 44.8137 56.618C44.8897 56.482 44.9957 56.376 45.1317 56.3C45.2637 56.22 45.4157 56.18 45.5877 56.18H48.9718C49.1438 56.18 49.2958 56.22 49.4278 56.3C49.5638 56.376 49.6698 56.482 49.7458 56.618C49.8258 56.75 49.8658 56.902 49.8658 57.074V57.086C49.8658 57.258 49.8258 57.412 49.7458 57.548C49.6698 57.68 49.5638 57.786 49.4278 57.866C49.2958 57.942 49.1438 57.98 48.9718 57.98H45.5877C45.4157 57.98 45.2637 57.942 45.1317 57.866C44.9957 57.786 44.8897 57.68 44.8137 57.548C44.7337 57.412 44.6937 57.258 44.6937 57.086V57.074Z" fill="#7F8B96"/>
<path d="M18.8 42.432C18.8 42.2027 18.8533 42 18.96 41.824C19.0613 41.6427 19.2027 41.5013 19.384 41.4C19.56 41.2933 19.7627 41.24 19.992 41.24H24.504C24.7333 41.24 24.936 41.2933 25.112 41.4C25.2933 41.5013 25.4347 41.6427 25.536 41.824C25.6427 42 25.696 42.2027 25.696 42.432V42.448C25.696 42.6773 25.6427 42.8827 25.536 43.064C25.4347 43.24 25.2933 43.3813 25.112 43.488C24.936 43.5893 24.7333 43.64 24.504 43.64H19.992C19.7627 43.64 19.56 43.5893 19.384 43.488C19.2027 43.3813 19.0613 43.24 18.96 43.064C18.8533 42.8827 18.8 42.6773 18.8 42.448V42.432ZM23.2922 42.432C23.2922 42.2027 23.3455 42 23.4522 41.824C23.5535 41.6427 23.6949 41.5013 23.8762 41.4C24.0522 41.2933 24.2549 41.24 24.4842 41.24H28.9962C29.2255 41.24 29.4282 41.2933 29.6042 41.4C29.7855 41.5013 29.9269 41.6427 30.0282 41.824C30.1349 42 30.1882 42.2027 30.1882 42.432V42.448C30.1882 42.6773 30.1349 42.8827 30.0282 43.064C29.9269 43.24 29.7855 43.3813 29.6042 43.488C29.4282 43.5893 29.2255 43.64 28.9962 43.64H24.4842C24.2549 43.64 24.0522 43.5893 23.8762 43.488C23.6949 43.3813 23.5535 43.24 23.4522 43.064C23.3455 42.8827 23.2922 42.6773 23.2922 42.448V42.432ZM27.7844 42.432C27.7844 42.2027 27.8377 42 27.9444 41.824C28.0457 41.6427 28.187 41.5013 28.3684 41.4C28.5444 41.2933 28.747 41.24 28.9764 41.24H33.4884C33.7177 41.24 33.9204 41.2933 34.0964 41.4C34.2777 41.5013 34.419 41.6427 34.5204 41.824C34.627 42 34.6804 42.2027 34.6804 42.432V42.448C34.6804 42.6773 34.627 42.8827 34.5204 43.064C34.419 43.24 34.2777 43.3813 34.0964 43.488C33.9204 43.5893 33.7177 43.64 33.4884 43.64H28.9764C28.747 43.64 28.5444 43.5893 28.3684 43.488C28.187 43.3813 28.0457 43.24 27.9444 43.064C27.8377 42.8827 27.7844 42.6773 27.7844 42.448V42.432ZM37.0734 42.432C37.0734 42.2027 37.1268 42 37.2334 41.824C37.3348 41.6427 37.4761 41.5013 37.6574 41.4C37.8334 41.2933 38.0361 41.24 38.2654 41.24H40.5694C40.7988 41.24 41.0014 41.2933 41.1774 41.4C41.3588 41.5013 41.5001 41.6427 41.6014 41.824C41.7081 42 41.7614 42.2027 41.7614 42.432V42.448C41.7614 42.6773 41.7081 42.8827 41.6014 43.064C41.5001 43.24 41.3588 43.3813 41.1774 43.488C41.0014 43.5893 40.7988 43.64 40.5694 43.64H38.2654C38.0361 43.64 37.8334 43.5893 37.6574 43.488C37.4761 43.3813 37.3348 43.24 37.2334 43.064C37.1268 42.8827 37.0734 42.6773 37.0734 42.448V42.432ZM39.3625 42.432C39.3625 42.2027 39.4158 42 39.5225 41.824C39.6238 41.6427 39.7652 41.5013 39.9465 41.4C40.1225 41.2933 40.3252 41.24 40.5545 41.24H45.0665C45.2958 41.24 45.4985 41.2933 45.6745 41.4C45.8558 41.5013 45.9972 41.6427 46.0985 41.824C46.2052 42 46.2585 42.2027 46.2585 42.432V42.448C46.2585 42.6773 46.2052 42.8827 46.0985 43.064C45.9972 43.24 45.8558 43.3813 45.6745 43.488C45.4985 43.5893 45.2958 43.64 45.0665 43.64H40.5545C40.3252 43.64 40.1225 43.5893 39.9465 43.488C39.7652 43.3813 39.6238 43.24 39.5225 43.064C39.4158 42.8827 39.3625 42.6773 39.3625 42.448V42.432ZM43.8547 42.432C43.8547 42.2027 43.908 42 44.0147 41.824C44.116 41.6427 44.2574 41.5013 44.4387 41.4C44.6147 41.2933 44.8174 41.24 45.0467 41.24H49.5587C49.788 41.24 49.9907 41.2933 50.1667 41.4C50.348 41.5013 50.4894 41.6427 50.5907 41.824C50.6974 42 50.7507 42.2027 50.7507 42.432V42.448C50.7507 42.6773 50.6974 42.8827 50.5907 43.064C50.4894 43.24 50.348 43.3813 50.1667 43.488C49.9907 43.5893 49.788 43.64 49.5587 43.64H45.0467C44.8174 43.64 44.6147 43.5893 44.4387 43.488C44.2574 43.3813 44.116 43.24 44.0147 43.064C43.908 42.8827 43.8547 42.6773 43.8547 42.448V42.432ZM48.3469 42.432C48.3469 42.2027 48.4002 42 48.5069 41.824C48.6082 41.6427 48.7495 41.5013 48.9309 41.4C49.1069 41.2933 49.3095 41.24 49.5389 41.24H51.8429C52.0722 41.24 52.2749 41.2933 52.4509 41.4C52.6322 41.5013 52.7735 41.6427 52.8749 41.824C52.9815 42 53.0349 42.2027 53.0349 42.432V42.448C53.0349 42.6773 52.9815 42.8827 52.8749 43.064C52.7735 43.24 52.6322 43.3813 52.4509 43.488C52.2749 43.5893 52.0722 43.64 51.8429 43.64H49.5389C49.3095 43.64 49.1069 43.5893 48.9309 43.488C48.7495 43.3813 48.6082 43.24 48.5069 43.064C48.4002 42.8827 48.3469 42.6773 48.3469 42.448V42.432ZM50.6359 42.432C50.6359 42.2027 50.6893 42 50.7959 41.824C50.8973 41.6427 51.0386 41.5013 51.2199 41.4C51.3959 41.2933 51.5986 41.24 51.8279 41.24H56.3399C56.5693 41.24 56.7719 41.2933 56.9479 41.4C57.1293 41.5013 57.2706 41.6427 57.3719 41.824C57.4786 42 57.5319 42.2027 57.5319 42.432V42.448C57.5319 42.6773 57.4786 42.8827 57.3719 43.064C57.2706 43.24 57.1293 43.3813 56.9479 43.488C56.7719 43.5893 56.5693 43.64 56.3399 43.64H51.8279C51.5986 43.64 51.3959 43.5893 51.2199 43.488C51.0386 43.3813 50.8973 43.24 50.7959 43.064C50.6893 42.8827 50.6359 42.6773 50.6359 42.448V42.432ZM55.1281 42.432C55.1281 42.2027 55.1815 42 55.2881 41.824C55.3895 41.6427 55.5308 41.5013 55.7121 41.4C55.8881 41.2933 56.0908 41.24 56.3201 41.24H58.6241C58.8535 41.24 59.0561 41.2933 59.2321 41.4C59.4135 41.5013 59.5548 41.6427 59.6561 41.824C59.7628 42 59.8161 42.2027 59.8161 42.432V42.448C59.8161 42.6773 59.7628 42.8827 59.6561 43.064C59.5548 43.24 59.4135 43.3813 59.2321 43.488C59.0561 43.5893 58.8535 43.64 58.6241 43.64H56.3201C56.0908 43.64 55.8881 43.5893 55.7121 43.488C55.5308 43.3813 55.3895 43.24 55.2881 43.064C55.1815 42.8827 55.1281 42.6773 55.1281 42.448V42.432ZM62.2141 42.432C62.2141 42.2027 62.2674 42 62.3741 41.824C62.4754 41.6427 62.6167 41.5013 62.7981 41.4C62.9741 41.2933 63.1767 41.24 63.4061 41.24H65.7101C65.9394 41.24 66.1421 41.2933 66.3181 41.4C66.4994 41.5013 66.6407 41.6427 66.7421 41.824C66.8487 42 66.9021 42.2027 66.9021 42.432V42.448C66.9021 42.6773 66.8487 42.8827 66.7421 43.064C66.6407 43.24 66.4994 43.3813 66.3181 43.488C66.1421 43.5893 65.9394 43.64 65.7101 43.64H63.4061C63.1767 43.64 62.9741 43.5893 62.7981 43.488C62.6167 43.3813 62.4754 43.24 62.3741 43.064C62.2674 42.8827 62.2141 42.6773 62.2141 42.448V42.432ZM64.5031 42.432C64.5031 42.2027 64.5565 42 64.6631 41.824C64.7645 41.6427 64.9058 41.5013 65.0871 41.4C65.2631 41.2933 65.4658 41.24 65.6951 41.24H67.9991C68.2285 41.24 68.4311 41.2933 68.6071 41.4C68.7885 41.5013 68.9298 41.6427 69.0311 41.824C69.1378 42 69.1911 42.2027 69.1911 42.432V42.448C69.1911 42.6773 69.1378 42.8827 69.0311 43.064C68.9298 43.24 68.7885 43.3813 68.6071 43.488C68.4311 43.5893 68.2285 43.64 67.9991 43.64H65.6951C65.4658 43.64 65.2631 43.5893 65.0871 43.488C64.9058 43.3813 64.7645 43.24 64.6631 43.064C64.5565 42.8827 64.5031 42.6773 64.5031 42.448V42.432ZM66.7922 42.432C66.7922 42.2027 66.8455 42 66.9522 41.824C67.0535 41.6427 67.1949 41.5013 67.3762 41.4C67.5522 41.2933 67.7549 41.24 67.9842 41.24H72.4962C72.7255 41.24 72.9282 41.2933 73.1042 41.4C73.2855 41.5013 73.4269 41.6427 73.5282 41.824C73.6349 42 73.6882 42.2027 73.6882 42.432V42.448C73.6882 42.6773 73.6349 42.8827 73.5282 43.064C73.4269 43.24 73.2855 43.3813 73.1042 43.488C72.9282 43.5893 72.7255 43.64 72.4962 43.64H67.9842C67.7549 43.64 67.5522 43.5893 67.3762 43.488C67.1949 43.3813 67.0535 43.24 66.9522 43.064C66.8455 42.8827 66.7922 42.6773 66.7922 42.448V42.432Z" fill="#CCCCCC"/>
<path d="M76.0812 42.432C76.0812 42.2027 76.1346 42 76.2412 41.824C76.3426 41.6427 76.4839 41.5013 76.6652 41.4C76.8412 41.2933 77.0439 41.24 77.2732 41.24H81.7853C82.0146 41.24 82.2173 41.2933 82.3933 41.4C82.5746 41.5013 82.7159 41.6427 82.8173 41.824C82.9239 42 82.9773 42.2027 82.9773 42.432V42.448C82.9773 42.6773 82.9239 42.8827 82.8173 43.064C82.7159 43.24 82.5746 43.3813 82.3933 43.488C82.2173 43.5893 82.0146 43.64 81.7853 43.64H77.2732C77.0439 43.64 76.8412 43.5893 76.6652 43.488C76.4839 43.3813 76.3426 43.24 76.2412 43.064C76.1346 42.8827 76.0812 42.6773 76.0812 42.448V42.432ZM80.5734 42.432C80.5734 42.2027 80.6268 42 80.7334 41.824C80.8348 41.6427 80.9761 41.5013 81.1574 41.4C81.3334 41.2933 81.5361 41.24 81.7654 41.24H86.2774C86.5068 41.24 86.7094 41.2933 86.8854 41.4C87.0668 41.5013 87.2081 41.6427 87.3094 41.824C87.4161 42 87.4694 42.2027 87.4694 42.432V42.448C87.4694 42.6773 87.4161 42.8827 87.3094 43.064C87.2081 43.24 87.0668 43.3813 86.8854 43.488C86.7094 43.5893 86.5068 43.64 86.2774 43.64H81.7654C81.5361 43.64 81.3334 43.5893 81.1574 43.488C80.9761 43.3813 80.8348 43.24 80.7334 43.064C80.6268 42.8827 80.5734 42.6773 80.5734 42.448V42.432ZM85.0656 42.432C85.0656 42.2027 85.119 42 85.2256 41.824C85.327 41.6427 85.4683 41.5013 85.6496 41.4C85.8256 41.2933 86.0283 41.24 86.2576 41.24H88.5616C88.791 41.24 88.9936 41.2933 89.1696 41.4C89.351 41.5013 89.4923 41.6427 89.5936 41.824C89.7003 42 89.7536 42.2027 89.7536 42.432V42.448C89.7536 42.6773 89.7003 42.8827 89.5936 43.064C89.4923 43.24 89.351 43.3813 89.1696 43.488C88.9936 43.5893 88.791 43.64 88.5616 43.64H86.2576C86.0283 43.64 85.8256 43.5893 85.6496 43.488C85.4683 43.3813 85.327 43.24 85.2256 43.064C85.119 42.8827 85.0656 42.6773 85.0656 42.448V42.432ZM87.3547 42.432C87.3547 42.2027 87.408 42 87.5147 41.824C87.616 41.6427 87.7574 41.5013 87.9387 41.4C88.1147 41.2933 88.3174 41.24 88.5467 41.24H93.0587C93.288 41.24 93.4907 41.2933 93.6667 41.4C93.848 41.5013 93.9894 41.6427 94.0907 41.824C94.1974 42 94.2507 42.2027 94.2507 42.432V42.448C94.2507 42.6773 94.1974 42.8827 94.0907 43.064C93.9894 43.24 93.848 43.3813 93.6667 43.488C93.4907 43.5893 93.288 43.64 93.0587 43.64H88.5467C88.3174 43.64 88.1147 43.5893 87.9387 43.488C87.7574 43.3813 87.616 43.24 87.5147 43.064C87.408 42.8827 87.3547 42.6773 87.3547 42.448V42.432Z" fill="url(#paint1_linear_972_1734)"/>
<path d="M23.1 49.074C23.1 48.902 23.14 48.75 23.22 48.618C23.296 48.482 23.402 48.376 23.538 48.3C23.67 48.22 23.822 48.18 23.994 48.18H27.378C27.55 48.18 27.702 48.22 27.834 48.3C27.97 48.376 28.076 48.482 28.152 48.618C28.232 48.75 28.272 48.902 28.272 49.074V49.086C28.272 49.258 28.232 49.412 28.152 49.548C28.076 49.68 27.97 49.786 27.834 49.866C27.702 49.942 27.55 49.98 27.378 49.98H23.994C23.822 49.98 23.67 49.942 23.538 49.866C23.402 49.786 23.296 49.68 23.22 49.548C23.14 49.412 23.1 49.258 23.1 49.086V49.074ZM26.4691 49.074C26.4691 48.902 26.5091 48.75 26.5891 48.618C26.6651 48.482 26.7711 48.376 26.9071 48.3C27.0391 48.22 27.1911 48.18 27.3631 48.18H30.7471C30.9191 48.18 31.0711 48.22 31.2031 48.3C31.3391 48.376 31.4451 48.482 31.5211 48.618C31.6011 48.75 31.6411 48.902 31.6411 49.074V49.086C31.6411 49.258 31.6011 49.412 31.5211 49.548C31.4451 49.68 31.3391 49.786 31.2031 49.866C31.0711 49.942 30.9191 49.98 30.7471 49.98H27.3631C27.1911 49.98 27.0391 49.942 26.9071 49.866C26.7711 49.786 26.6651 49.68 26.5891 49.548C26.5091 49.412 26.4691 49.258 26.4691 49.086V49.074ZM29.8383 49.074C29.8383 48.902 29.8783 48.75 29.9583 48.618C30.0343 48.482 30.1403 48.376 30.2763 48.3C30.4083 48.22 30.5603 48.18 30.7323 48.18H34.1163C34.2883 48.18 34.4403 48.22 34.5723 48.3C34.7083 48.376 34.8143 48.482 34.8903 48.618C34.9703 48.75 35.0103 48.902 35.0103 49.074V49.086C35.0103 49.258 34.9703 49.412 34.8903 49.548C34.8143 49.68 34.7083 49.786 34.5723 49.866C34.4403 49.942 34.2883 49.98 34.1163 49.98H30.7323C30.5603 49.98 30.4083 49.942 30.2763 49.866C30.1403 49.786 30.0343 49.68 29.9583 49.548C29.8783 49.412 29.8383 49.258 29.8383 49.086V49.074ZM36.8051 49.074C36.8051 48.902 36.8451 48.75 36.9251 48.618C37.0011 48.482 37.1071 48.376 37.2431 48.3C37.3751 48.22 37.5271 48.18 37.6991 48.18H39.4271C39.5991 48.18 39.7511 48.22 39.8831 48.3C40.0191 48.376 40.1251 48.482 40.2011 48.618C40.2811 48.75 40.3211 48.902 40.3211 49.074V49.086C40.3211 49.258 40.2811 49.412 40.2011 49.548C40.1251 49.68 40.0191 49.786 39.8831 49.866C39.7511 49.942 39.5991 49.98 39.4271 49.98H37.6991C37.5271 49.98 37.3751 49.942 37.2431 49.866C37.1071 49.786 37.0011 49.68 36.9251 49.548C36.8451 49.412 36.8051 49.258 36.8051 49.086V49.074ZM38.5219 49.074C38.5219 48.902 38.5619 48.75 38.6419 48.618C38.7179 48.482 38.8239 48.376 38.9599 48.3C39.0919 48.22 39.2439 48.18 39.4159 48.18H42.7999C42.9719 48.18 43.1239 48.22 43.2559 48.3C43.3919 48.376 43.4979 48.482 43.5739 48.618C43.6539 48.75 43.6939 48.902 43.6939 49.074V49.086C43.6939 49.258 43.6539 49.412 43.5739 49.548C43.4979 49.68 43.3919 49.786 43.2559 49.866C43.1239 49.942 42.9719 49.98 42.7999 49.98H39.4159C39.2439 49.98 39.0919 49.942 38.9599 49.866C38.8239 49.786 38.7179 49.68 38.6419 49.548C38.5619 49.412 38.5219 49.258 38.5219 49.086V49.074ZM41.891 49.074C41.891 48.902 41.931 48.75 42.011 48.618C42.087 48.482 42.193 48.376 42.329 48.3C42.461 48.22 42.613 48.18 42.785 48.18H46.169C46.341 48.18 46.493 48.22 46.625 48.3C46.761 48.376 46.867 48.482 46.943 48.618C47.023 48.75 47.063 48.902 47.063 49.074V49.086C47.063 49.258 47.023 49.412 46.943 49.548C46.867 49.68 46.761 49.786 46.625 49.866C46.493 49.942 46.341 49.98 46.169 49.98H42.785C42.613 49.98 42.461 49.942 42.329 49.866C42.193 49.786 42.087 49.68 42.011 49.548C41.931 49.412 41.891 49.258 41.891 49.086V49.074ZM45.2602 49.074C45.2602 48.902 45.3002 48.75 45.3802 48.618C45.4562 48.482 45.5622 48.376 45.6982 48.3C45.8302 48.22 45.9822 48.18 46.1542 48.18H47.8822C48.0542 48.18 48.2062 48.22 48.3382 48.3C48.4742 48.376 48.5802 48.482 48.6562 48.618C48.7362 48.75 48.7762 48.902 48.7762 49.074V49.086C48.7762 49.258 48.7362 49.412 48.6562 49.548C48.5802 49.68 48.4742 49.786 48.3382 49.866C48.2062 49.942 48.0542 49.98 47.8822 49.98H46.1542C45.9822 49.98 45.8302 49.942 45.6982 49.866C45.5622 49.786 45.4562 49.68 45.3802 49.548C45.3002 49.412 45.2602 49.258 45.2602 49.086V49.074ZM46.977 49.074C46.977 48.902 47.017 48.75 47.097 48.618C47.173 48.482 47.279 48.376 47.415 48.3C47.547 48.22 47.699 48.18 47.871 48.18H51.255C51.427 48.18 51.579 48.22 51.711 48.3C51.847 48.376 51.953 48.482 52.029 48.618C52.109 48.75 52.149 48.902 52.149 49.074V49.086C52.149 49.258 52.109 49.412 52.029 49.548C51.953 49.68 51.847 49.786 51.711 49.866C51.579 49.942 51.427 49.98 51.255 49.98H47.871C47.699 49.98 47.547 49.942 47.415 49.866C47.279 49.786 47.173 49.68 47.097 49.548C47.017 49.412 46.977 49.258 46.977 49.086V49.074ZM50.3461 49.074C50.3461 48.902 50.3861 48.75 50.4661 48.618C50.5421 48.482 50.6481 48.376 50.7841 48.3C50.9161 48.22 51.0681 48.18 51.2401 48.18H52.9681C53.1401 48.18 53.2921 48.22 53.4241 48.3C53.5601 48.376 53.6661 48.482 53.7421 48.618C53.8221 48.75 53.8621 48.902 53.8621 49.074V49.086C53.8621 49.258 53.8221 49.412 53.7421 49.548C53.6661 49.68 53.5601 49.786 53.4241 49.866C53.2921 49.942 53.1401 49.98 52.9681 49.98H51.2401C51.0681 49.98 50.9161 49.942 50.7841 49.866C50.6481 49.786 50.5421 49.68 50.4661 49.548C50.3861 49.412 50.3461 49.258 50.3461 49.086V49.074ZM55.6605 49.074C55.6605 48.902 55.7005 48.75 55.7805 48.618C55.8565 48.482 55.9625 48.376 56.0985 48.3C56.2305 48.22 56.3825 48.18 56.5545 48.18H58.2825C58.4545 48.18 58.6065 48.22 58.7385 48.3C58.8745 48.376 58.9805 48.482 59.0565 48.618C59.1365 48.75 59.1765 48.902 59.1765 49.074V49.086C59.1765 49.258 59.1365 49.412 59.0565 49.548C58.9805 49.68 58.8745 49.786 58.7385 49.866C58.6065 49.942 58.4545 49.98 58.2825 49.98H56.5545C56.3825 49.98 56.2305 49.942 56.0985 49.866C55.9625 49.786 55.8565 49.68 55.7805 49.548C55.7005 49.412 55.6605 49.258 55.6605 49.086V49.074ZM57.3773 49.074C57.3773 48.902 57.4173 48.75 57.4973 48.618C57.5733 48.482 57.6793 48.376 57.8153 48.3C57.9473 48.22 58.0993 48.18 58.2713 48.18H59.9993C60.1713 48.18 60.3233 48.22 60.4553 48.3C60.5913 48.376 60.6973 48.482 60.7733 48.618C60.8533 48.75 60.8933 48.902 60.8933 49.074V49.086C60.8933 49.258 60.8533 49.412 60.7733 49.548C60.6973 49.68 60.5913 49.786 60.4553 49.866C60.3233 49.942 60.1713 49.98 59.9993 49.98H58.2713C58.0993 49.98 57.9473 49.942 57.8153 49.866C57.6793 49.786 57.5733 49.68 57.4973 49.548C57.4173 49.412 57.3773 49.258 57.3773 49.086V49.074ZM59.0941 49.074C59.0941 48.902 59.1341 48.75 59.2141 48.618C59.2901 48.482 59.3961 48.376 59.5321 48.3C59.6641 48.22 59.8161 48.18 59.9881 48.18H63.3721C63.5441 48.18 63.6961 48.22 63.8281 48.3C63.9641 48.376 64.0701 48.482 64.1461 48.618C64.2261 48.75 64.2661 48.902 64.2661 49.074V49.086C64.2661 49.258 64.2261 49.412 64.1461 49.548C64.0701 49.68 63.9641 49.786 63.8281 49.866C63.6961 49.942 63.5441 49.98 63.3721 49.98H59.9881C59.8161 49.98 59.6641 49.942 59.5321 49.866C59.3961 49.786 59.2901 49.68 59.2141 49.548C59.1341 49.412 59.0941 49.258 59.0941 49.086V49.074ZM66.0609 49.074C66.0609 48.902 66.1009 48.75 66.1809 48.618C66.2569 48.482 66.3629 48.376 66.4989 48.3C66.6309 48.22 66.7829 48.18 66.9549 48.18H70.3389C70.5109 48.18 70.6629 48.22 70.7949 48.3C70.9309 48.376 71.0369 48.482 71.1129 48.618C71.1929 48.75 71.2329 48.902 71.2329 49.074V49.086C71.2329 49.258 71.1929 49.412 71.1129 49.548C71.0369 49.68 70.9309 49.786 70.7949 49.866C70.6629 49.942 70.5109 49.98 70.3389 49.98H66.9549C66.7829 49.98 66.6309 49.942 66.4989 49.866C66.3629 49.786 66.2569 49.68 66.1809 49.548C66.1009 49.412 66.0609 49.258 66.0609 49.086V49.074ZM69.4301 49.074C69.4301 48.902 69.4701 48.75 69.5501 48.618C69.6261 48.482 69.7321 48.376 69.8681 48.3C70.0001 48.22 70.1521 48.18 70.3241 48.18H73.7081C73.8801 48.18 74.0321 48.22 74.1641 48.3C74.3001 48.376 74.4061 48.482 74.4821 48.618C74.5621 48.75 74.6021 48.902 74.6021 49.074V49.086C74.6021 49.258 74.5621 49.412 74.4821 49.548C74.4061 49.68 74.3001 49.786 74.1641 49.866C74.0321 49.942 73.8801 49.98 73.7081 49.98H70.3241C70.1521 49.98 70.0001 49.942 69.8681 49.866C69.7321 49.786 69.6261 49.68 69.5501 49.548C69.4701 49.412 69.4301 49.258 69.4301 49.086V49.074ZM72.7992 49.074C72.7992 48.902 72.8392 48.75 72.9192 48.618C72.9952 48.482 73.1012 48.376 73.2372 48.3C73.3692 48.22 73.5212 48.18 73.6932 48.18H75.4212C75.5932 48.18 75.7452 48.22 75.8772 48.3C76.0132 48.376 76.1192 48.482 76.1952 48.618C76.2752 48.75 76.3152 48.902 76.3152 49.074V49.086C76.3152 49.258 76.2752 49.412 76.1952 49.548C76.1192 49.68 76.0132 49.786 75.8772 49.866C75.7452 49.942 75.5932 49.98 75.4212 49.98H73.6932C73.5212 49.98 73.3692 49.942 73.2372 49.866C73.1012 49.786 72.9952 49.68 72.9192 49.548C72.8392 49.412 72.7992 49.258 72.7992 49.086V49.074ZM74.516 49.074C74.516 48.902 74.556 48.75 74.636 48.618C74.712 48.482 74.818 48.376 74.954 48.3C75.086 48.22 75.238 48.18 75.41 48.18H78.794C78.966 48.18 79.118 48.22 79.25 48.3C79.386 48.376 79.492 48.482 79.568 48.618C79.648 48.75 79.688 48.902 79.688 49.074V49.086C79.688 49.258 79.648 49.412 79.568 49.548C79.492 49.68 79.386 49.786 79.25 49.866C79.118 49.942 78.966 49.98 78.794 49.98H75.41C75.238 49.98 75.086 49.942 74.954 49.866C74.818 49.786 74.712 49.68 74.636 49.548C74.556 49.412 74.516 49.258 74.516 49.086V49.074Z" fill="#CCCCCC"/>
</g>
<path d="M130 163C130.552 163 131 162.552 131 162V10C131 5.02944 126.971 1 122 1H10C5.02944 1 1 5.02944 1 10V162C1 162.552 1.44772 163 2 163H130Z" stroke="#30353F" stroke-width="2" stroke-linejoin="round"/>
<defs>
<filter id="filter0_f_972_1734" x="-65" y="-69" width="259" height="282" filterUnits="userSpaceOnUse" color-interpolation-filters="sRGB">
<feFlood flood-opacity="0" result="BackgroundImageFix"/>
<feBlend mode="normal" in="SourceGraphic" in2="BackgroundImageFix" result="shape"/>
<feGaussianBlur stdDeviation="32" result="effect1_foregroundBlur_972_1734"/>
</filter>
<linearGradient id="paint0_linear_972_1734" x1="113.625" y1="-4.20617" x2="80.4696" y2="-2.78698" gradientUnits="userSpaceOnUse">
<stop stop-color="#4FEAA9"/>
<stop offset="1" stop-color="#57B7D9"/>
</linearGradient>
<linearGradient id="paint1_linear_972_1734" x1="84.75" y1="37.0515" x2="68.2715" y2="43.1875" gradientUnits="userSpaceOnUse">
<stop stop-color="#4FEAA9"/>
<stop offset="1" stop-color="#57B7D9"/>
</linearGradient>
<clipPath id="clip0_972_1734">
<path d="M2 10C2 5.58172 5.58172 2 10 2H122C126.418 2 130 5.58172 130 10V162H2V10Z" fill="white"/>
</clipPath>
</defs>
</svg>
